<?xml version="1.0" encoding="UTF-8"?>
<svg version="1.1" xmlns="http://www.w3.org/2000/svg" width="100" height="100">
<path d="M0 0 C1.03447266 -0.00637985 2.06894531 -0.0127597 3.13476562 -0.01933289 C4.25560547 -0.02044571 5.37644531 -0.02155853 6.53125 -0.02270508 C8.25118164 -0.02769768 8.25118164 -0.02769768 10.00585938 -0.03279114 C12.43358966 -0.03786061 14.86132693 -0.04019946 17.2890625 -0.04003906 C21.01574082 -0.04222722 24.74212404 -0.06038758 28.46875 -0.0793457 C30.82291565 -0.0822792 33.17708271 -0.08426429 35.53125 -0.08520508 C36.65208984 -0.09239059 37.77292969 -0.09957611 38.92773438 -0.10697937 C39.96220703 -0.10390274 40.99667969 -0.10082611 42.0625 -0.09765625 C42.97580078 -0.09908127 43.88910156 -0.10050629 44.83007812 -0.10197449 C47.03125 0.14526367 47.03125 0.14526367 49.03125 2.14526367 C49.2265625 5.18432617 49.2265625 5.18432617 49.15625 8.77026367 C49.13820313 9.9587793 49.12015625 11.14729492 49.1015625 12.37182617 C49.07835938 13.28706055 49.05515625 14.20229492 49.03125 15.14526367 C49.77286377 15.13479004 50.51447754 15.12431641 51.27856445 15.11352539 C54.63359193 15.07199171 57.98856533 15.04594579 61.34375 15.02026367 C62.51099609 15.00350586 63.67824219 14.98674805 64.88085938 14.96948242 C65.99912109 14.96303711 67.11738281 14.9565918 68.26953125 14.94995117 C69.30118408 14.93947754 70.33283691 14.92900391 71.39575195 14.91821289 C74.03125 15.14526367 74.03125 15.14526367 77.03125 17.14526367 C77.41220093 19.65014648 77.41220093 19.65014648 77.41943359 22.84838867 C77.42889008 24.04302734 77.43834656 25.23766602 77.4480896 26.46850586 C77.44201691 27.76433594 77.43594421 29.06016602 77.4296875 30.39526367 C77.43170768 31.73283039 77.43461864 33.07039604 77.43838501 34.40795898 C77.4428111 37.21242755 77.43636861 40.01660963 77.42236328 42.82104492 C77.40527069 46.41944174 77.41511043 50.01716737 77.43308067 53.61553955 C77.44391115 56.37789994 77.44047568 59.14010068 77.4326973 61.90246582 C77.42971712 63.87565546 77.43884266 65.84885126 77.4480896 67.82202148 C77.43390488 69.61397949 77.43390488 69.61397949 77.41943359 71.44213867 C77.41704681 72.49755859 77.41466003 73.55297852 77.41220093 74.64038086 C77.28648712 75.46699219 77.16077332 76.29360352 77.03125 77.14526367 C73.58491118 79.44282289 72.32056609 79.38170343 68.26953125 79.34057617 C67.15126953 79.33413086 66.03300781 79.32768555 64.88085938 79.32104492 C63.12999023 79.2959082 63.12999023 79.2959082 61.34375 79.27026367 C60.16490234 79.26124023 58.98605469 79.2522168 57.77148438 79.24291992 C54.85786974 79.2193279 51.94466108 79.18640908 49.03125 79.14526367 C49.0725 80.25901367 49.11375 81.37276367 49.15625 82.52026367 C49.03125 86.14526367 49.03125 86.14526367 47.03125 88.14526367 C44.22265625 88.39923096 44.22265625 88.39923096 40.59375 88.40405273 C39.93342773 88.40755737 39.27310547 88.41106201 38.59277344 88.41467285 C36.40549268 88.42349049 34.21853417 88.4176411 32.03125 88.41088867 C30.51432228 88.41223532 28.99739499 88.41417585 27.48046875 88.41668701 C24.29943742 88.41963831 21.11851831 88.41534051 17.9375 88.40600586 C13.85497098 88.39461124 9.77270491 88.40117069 5.69018555 88.41315079 C2.55727142 88.42036928 -0.57558011 88.41808153 -3.70849609 88.4128952 C-5.21403026 88.41155867 -6.71957007 88.41320655 -8.22509766 88.41785431 C-10.32730212 88.42291946 -12.42907758 88.41520995 -14.53125 88.40405273 C-15.72878906 88.40246155 -16.92632812 88.40087036 -18.16015625 88.39923096 C-20.96875 88.14526367 -20.96875 88.14526367 -22.96875 86.14526367 C-23.31692505 83.39291382 -23.31692505 83.39291382 -23.44970703 79.83813477 C-23.47569977 79.19054703 -23.5016925 78.54295929 -23.5284729 77.87574768 C-23.78361755 71.05118253 -23.89577612 64.22157889 -23.99853516 57.39331055 C-24.05167328 54.16682504 -24.14851665 50.94639894 -24.28564453 47.72241211 C-25.51637079 18.11180414 -25.51637079 18.11180414 -17.26217651 9.05801392 C-11.96873177 4.18438489 -7.36738834 0.0307489 0 0 Z M-0.96875 4.14526367 C-1.29875 9.75526367 -1.62875 15.36526367 -1.96875 21.14526367 C-7.07212579 23.69695157 -13.27563974 22.76572299 -18.96875 23.14526367 C-18.96875 43.27526367 -18.96875 63.40526367 -18.96875 84.14526367 C2.15125 84.14526367 23.27125 84.14526367 45.03125 84.14526367 C45.03125 82.49526367 45.03125 80.84526367 45.03125 79.14526367 C44.37527832 79.12544434 43.71930664 79.105625 43.04345703 79.08520508 C40.08063931 78.9901386 37.11854468 78.88038615 34.15625 78.77026367 C33.12371094 78.73932617 32.09117188 78.70838867 31.02734375 78.67651367 C30.04121094 78.6378418 29.05507813 78.59916992 28.0390625 78.55932617 C27.12785645 78.52790527 26.21665039 78.49648437 25.27783203 78.46411133 C23.03125 78.14526367 23.03125 78.14526367 21.03125 76.14526367 C20.77055359 73.71630859 20.77055359 73.71630859 20.7565918 70.62573242 C20.74705978 69.47113525 20.73752777 68.31653809 20.72770691 67.12695312 C20.72861832 65.87487061 20.72952972 64.62278809 20.73046875 63.33276367 C20.72618362 62.05296631 20.7218985 60.77316895 20.71748352 59.45458984 C20.71001759 56.74434267 20.71031547 54.03422576 20.71557617 51.32397461 C20.72137541 47.84667144 20.7044315 44.36990012 20.6812315 40.89268494 C20.66298019 37.58102161 20.66667878 34.26947711 20.66796875 30.95776367 C20.658759 29.70568115 20.64954926 28.45359863 20.64006042 27.16357422 C20.64628922 26.00897705 20.65251801 24.85437988 20.65893555 23.66479492 C20.65830612 22.64490479 20.6576767 21.62501465 20.6570282 20.57421875 C20.78052139 19.77266357 20.90401459 18.9711084 21.03125 18.14526367 C24.21545845 16.02245804 25.23662255 15.86506831 28.91796875 15.73120117 C30.3246582 15.67319336 30.3246582 15.67319336 31.75976562 15.61401367 C33.22446289 15.56760742 33.22446289 15.56760742 34.71875 15.52026367 C35.70681641 15.4815918 36.69488281 15.44291992 37.71289062 15.40307617 C40.1520361 15.30880968 42.59161747 15.22594778 45.03125 15.14526367 C45.03125 11.51526367 45.03125 7.88526367 45.03125 4.14526367 C29.85125 4.14526367 14.67125 4.14526367 -0.96875 4.14526367 Z M-10.32226562 10.36206055 C-10.88623047 10.92989258 -11.45019531 11.49772461 -12.03125 12.08276367 C-12.59908203 12.64672852 -13.16691406 13.21069336 -13.75195312 13.79174805 C-16.63037004 16.09277252 -16.63037004 16.09277252 -17.96875 19.14526367 C-15.98965602 19.1721292 -14.01046029 19.19159743 -12.03125 19.20776367 C-10.37802734 19.22516602 -10.37802734 19.22516602 -8.69140625 19.24291992 C-6.05427366 19.45788939 -6.05427366 19.45788939 -4.96875 18.14526367 C-4.89630947 16.12562168 -4.88497812 14.10359244 -4.90625 12.08276367 C-4.91527344 10.97803711 -4.92429687 9.87331055 -4.93359375 8.73510742 C-4.94519531 7.88045898 -4.95679688 7.02581055 -4.96875 6.14526367 C-7.26395121 6.14526367 -8.7785311 8.82202359 -10.32226562 10.36206055 Z M24.03125 20.14526367 C24.03125 25.75526367 24.03125 31.36526367 24.03125 37.14526367 C40.20125 37.14526367 56.37125 37.14526367 73.03125 37.14526367 C73.03125 31.53526367 73.03125 25.92526367 73.03125 20.14526367 C71.46063615 18.57464983 69.907494 19.01801387 67.72680664 19.01586914 C66.81238297 19.01271698 65.89795929 19.00956482 64.95582581 19.00631714 C63.96106735 19.00834137 62.9663089 19.0103656 61.94140625 19.01245117 C60.41911659 19.01101608 60.41911659 19.01101608 58.86607361 19.009552 C56.71483295 19.00887 54.56359025 19.01072569 52.41235352 19.01489258 C49.11144398 19.02023503 45.81067086 19.0149511 42.50976562 19.00854492 C40.42447886 19.00920581 38.33919219 19.01048719 36.25390625 19.01245117 C35.26117203 19.01042694 34.26843781 19.00840271 33.24562073 19.00631714 C32.32804489 19.0094693 31.41046906 19.01262146 30.46508789 19.01586914 C29.65536026 19.01666473 28.84563263 19.01746033 28.0113678 19.01828003 C25.95512086 19.02122183 25.95512086 19.02122183 24.03125 20.14526367 Z M24.03125 41.14526367 C24.010625 46.56963867 23.99 51.99401367 23.96875 57.58276367 C23.959646 59.2964917 23.95054199 61.01021973 23.94116211 62.77587891 C23.93824284 64.12687095 23.93569431 65.47786386 23.93359375 66.82885742 C23.92847778 67.53627075 23.92336182 68.24368408 23.91809082 68.97253418 C23.91777968 70.69718985 23.96899239 72.42173205 24.03125 74.14526367 C25.02536455 75.36006651 25.02536455 75.36006651 26.97377014 75.26551819 C27.82426437 75.26329758 28.67475861 75.26107697 29.55102539 75.25878906 C30.51194595 75.25871353 31.47286652 75.258638 32.46290588 75.25856018 C33.507686 75.2533989 34.55246613 75.24823761 35.62890625 75.24291992 C37.22489906 75.2407975 37.22489906 75.2407975 38.85313416 75.2386322 C42.26670083 75.23301431 45.680203 75.22045878 49.09375 75.20776367 C51.40169176 75.20275098 53.70963455 75.19818767 56.01757812 75.1940918 C61.68884721 75.183888 67.35997601 75.1643161 73.03125 75.14526367 C73.03125 63.92526367 73.03125 52.70526367 73.03125 41.14526367 C56.86125 41.14526367 40.69125 41.14526367 24.03125 41.14526367 Z " fill="#FFFFFF" transform="translate(22.96875,5.854736328125)"/>
<path d="M0 0 C3.39787774 3.00277568 6.21152863 5.70100352 7.03515625 10.328125 C7.24132483 15.02518307 6.31265511 18.39200604 3.6875 22.375 C0.0075984 25.77890898 -2.57778618 27.2440782 -7.625 27.625 C-12.97680237 27.26216594 -16.03199363 25.79393949 -19.625 21.8125 C-22.73361151 17.32228337 -22.83469395 13.7461378 -22.3125 8.375 C-20.66369358 4.66518555 -18.36104115 2.04247351 -15.3125 -0.625 C-9.94299295 -2.41483568 -5.11514667 -2.50931724 0 0 Z M-6.3125 2.375 C-7.03480991 8.09449234 -7.03480991 8.09449234 -5.046875 13.30859375 C-3.27418239 15.17265526 -3.27418239 15.17265526 -0.3125 17.375 C0.3475 17.375 1.0075 17.375 1.6875 17.375 C2.77657655 12.41415605 2.77657655 12.41415605 1.5 7.625 C-0.29117024 5.40147832 -1.88205284 3.8646289 -4.3125 2.375 C-4.9725 2.375 -5.6325 2.375 -6.3125 2.375 Z M-15.9296875 5.75390625 C-17.98697781 8.16570139 -18.38174407 10.25911111 -18.546875 13.37890625 C-18.13771247 16.86360711 -16.62119016 18.82328983 -14.3125 21.375 C-10.40765232 23.73846044 -7.67740163 23.3900934 -3.3125 22.375 C-3.3125 21.385 -3.3125 20.395 -3.3125 19.375 C-4.281875 18.55 -5.25125 17.725 -6.25 16.875 C-10.11402365 13.29282278 -10.10202324 9.63691905 -10.3046875 4.5703125 C-10.30726562 3.84585938 -10.30984375 3.12140625 -10.3125 2.375 C-12.60636474 2.375 -14.2758616 4.34376001 -15.9296875 5.75390625 Z " fill="#FFFFFF" transform="translate(31.3125,32.625)"/>
<path d="M0 0 C1.47906892 -0.02689216 2.95827483 -0.04634621 4.4375 -0.0625 C5.26121094 -0.07410156 6.08492187 -0.08570312 6.93359375 -0.09765625 C9 0 9 0 10 1 C10.07179964 2.51928038 10.08392007 4.04167482 10.0625 5.5625 C10.05347656 6.38878906 10.04445313 7.21507813 10.03515625 8.06640625 C10.02355469 8.70449219 10.01195313 9.34257813 10 10 C11.98 10 13.96 10 16 10 C16 11.98 16 13.96 16 16 C17.98 16 19.96 16 22 16 C21.67 17.32 21.34 18.64 21 20 C9.78 20 -1.44 20 -13 20 C-13 18.68 -13 17.36 -13 16 C-11.02 16 -9.04 16 -7 16 C-7 12.37 -7 8.74 -7 5 C-5.02 5 -3.04 5 -1 5 C-0.67 3.35 -0.34 1.7 0 0 Z M3 4 C3 7.96 3 11.92 3 16 C3.99 16 4.98 16 6 16 C6 12.04 6 8.08 6 4 C5.01 4 4.02 4 3 4 Z M-3 9 C-3 11.31 -3 13.62 -3 16 C-2.34 16 -1.68 16 -1 16 C-1 13.69 -1 11.38 -1 9 C-1.66 9 -2.32 9 -3 9 Z M10 14 C10 14.66 10 15.32 10 16 C10.66 16 11.32 16 12 16 C12 15.34 12 14.68 12 14 C11.34 14 10.68 14 10 14 Z " fill="#FFFFFF" transform="translate(19,65)"/>
<path d="M0 0 C0.99 0.66 1.98 1.32 3 2 C3.38818359 4.58203125 3.38818359 4.58203125 3.3984375 7.8125 C3.40230469 8.97007813 3.40617187 10.12765625 3.41015625 11.3203125 C3.39855469 12.53460938 3.38695313 13.74890625 3.375 15 C3.38660156 16.21429688 3.39820312 17.42859375 3.41015625 18.6796875 C3.40628906 19.83726563 3.40242188 20.99484375 3.3984375 22.1875 C3.39505371 23.25355469 3.39166992 24.31960937 3.38818359 25.41796875 C3.26008301 26.27003906 3.13198242 27.12210938 3 28 C-0.68717438 30.45811625 -2.64345704 30.31118164 -7 30 C-7.99 29.34 -8.98 28.68 -10 28 C-10.38818359 25.41796875 -10.38818359 25.41796875 -10.3984375 22.1875 C-10.40230469 21.02992187 -10.40617187 19.87234375 -10.41015625 18.6796875 C-10.39855469 17.46539062 -10.38695313 16.25109375 -10.375 15 C-10.38660156 13.78570312 -10.39820312 12.57140625 -10.41015625 11.3203125 C-10.40628906 10.16273437 -10.40242188 9.00515625 -10.3984375 7.8125 C-10.39505371 6.74644531 -10.39166992 5.68039063 -10.38818359 4.58203125 C-10.26008301 3.72996094 -10.13198242 2.87789062 -10 2 C-6.31282562 -0.45811625 -4.35654296 -0.31118164 0 0 Z M-6 5 C-6 11.6 -6 18.2 -6 25 C-4.35 25 -2.7 25 -1 25 C-1 18.4 -1 11.8 -1 5 C-2.65 5 -4.3 5 -6 5 Z " fill="#FFFFFF" transform="translate(91,49)"/>
<path d="M0 0 C0.886875 -0.01675781 1.77375 -0.03351563 2.6875 -0.05078125 C3.8321875 0.12904297 3.8321875 0.12904297 5 0.3125 C7.54772167 4.13408251 7.56866675 6.83774523 7 11.3125 C6 13.3125 6 13.3125 4 14.3125 C-0.47475477 14.88116675 -3.17841749 14.86022167 -7 12.3125 C-7.36328125 10 -7.36328125 10 -7.3125 7.3125 C-7.30863281 6.425625 -7.30476563 5.53875 -7.30078125 4.625 C-6.69815457 -0.00818176 -4.05134966 0.01766577 0 0 Z M-3 4.3125 C-3 5.9625 -3 7.6125 -3 9.3125 C-1.02 9.3125 0.96 9.3125 3 9.3125 C3 7.6625 3 6.0125 3 4.3125 C1.02 4.3125 -0.96 4.3125 -3 4.3125 Z " fill="#FFFFFF" transform="translate(72,64.6875)"/>
<path d="M0 0 C2 1 2 1 3 3 C3.56866675 7.47475477 3.54772167 10.17841749 1 14 C-1.3125 14.36328125 -1.3125 14.36328125 -4 14.3125 C-4.886875 14.30863281 -5.77375 14.30476563 -6.6875 14.30078125 C-9 14 -9 14 -11 12 C-11.30078125 9.6875 -11.30078125 9.6875 -11.3125 7 C-11.32925781 6.113125 -11.34601563 5.22625 -11.36328125 4.3125 C-11.24339844 3.549375 -11.12351562 2.78625 -11 2 C-7.17841749 -0.54772167 -4.47475477 -0.56866675 0 0 Z M-7 5 C-7 6.65 -7 8.3 -7 10 C-5.02 10 -3.04 10 -1 10 C-1 8.35 -1 6.7 -1 5 C-2.98 5 -4.96 5 -7 5 Z " fill="#FFFFFF" transform="translate(76,49)"/>
<path d="M0 0 C0.99 0.66 1.98 1.32 3 2 C3.36328125 4.3125 3.36328125 4.3125 3.3125 7 C3.30863281 7.886875 3.30476563 8.77375 3.30078125 9.6875 C3 12 3 12 1 14 C-1.34765625 14.23046875 -1.34765625 14.23046875 -4.0625 14.1875 C-4.96097656 14.18105469 -5.85945313 14.17460938 -6.78515625 14.16796875 C-9 14 -9 14 -10 13 C-10.07244053 10.98035801 -10.08377188 8.95832876 -10.0625 6.9375 C-10.05347656 5.83277344 -10.04445312 4.72804688 -10.03515625 3.58984375 C-10.02355469 2.73519531 -10.01195312 1.88054688 -10 1 C-6.87293041 -0.5635348 -3.42017557 -0.39958487 0 0 Z M-6 5 C-6 6.65 -6 8.3 -6 10 C-4.35 10 -2.7 10 -1 10 C-1 8.35 -1 6.7 -1 5 C-2.65 5 -4.3 5 -6 5 Z " fill="#FFFFFF" transform="translate(60,49)"/>
<path d="M0 0 C0.89589844 -0.01417969 1.79179688 -0.02835937 2.71484375 -0.04296875 C5.0625 0.1875 5.0625 0.1875 7.0625 2.1875 C7.36328125 4.5 7.36328125 4.5 7.375 7.1875 C7.39175781 8.074375 7.40851562 8.96125 7.42578125 9.875 C7.30589844 10.638125 7.18601562 11.40125 7.0625 12.1875 C3.38134463 14.64160358 1.40956402 14.42037843 -2.9375 14.1875 C-3.9275 13.8575 -4.9175 13.5275 -5.9375 13.1875 C-5.96436553 11.20840602 -5.98383375 9.22921029 -6 7.25 C-6.01160156 6.14785156 -6.02320313 5.04570313 -6.03515625 3.91015625 C-5.870859 -0.67045114 -4.11268384 0.02950275 0 0 Z M-1.9375 4.1875 C-1.9375 5.8375 -1.9375 7.4875 -1.9375 9.1875 C-0.2875 9.1875 1.3625 9.1875 3.0625 9.1875 C3.0625 7.5375 3.0625 5.8875 3.0625 4.1875 C1.4125 4.1875 -0.2375 4.1875 -1.9375 4.1875 Z " fill="#FFFFFF" transform="translate(55.9375,64.8125)"/>
</svg>
