<?xml version="1.0" encoding="UTF-8"?>
<svg version="1.1" xmlns="http://www.w3.org/2000/svg" width="100" height="100">
<path d="M0 0 C6.76177626 3.9874262 11.10132753 9.40983315 13.4375 16.9375 C13.65497017 19.95791903 13.62246204 22.91645333 13.4375 25.9375 C14.736875 26.06125 14.736875 26.06125 16.0625 26.1875 C21.4346417 27.38130927 24.45029399 29.51013558 27.57958984 34.03466797 C29.88005757 38.2447519 30.050113 42.03289947 30.0390625 46.7578125 C30.04763275 47.57949921 30.056203 48.40118591 30.06503296 49.24777222 C30.07645585 50.97390066 30.07756719 52.70012531 30.06884766 54.42626953 C30.06249835 57.06318493 30.1095985 59.69566526 30.16015625 62.33203125 C30.16470037 64.01561937 30.16611009 65.69921949 30.1640625 67.3828125 C30.18248199 68.16625031 30.20090149 68.94968811 30.21987915 69.75686646 C30.13020696 75.06782339 30.13020696 75.06782339 28.15838623 77.543396 C22.8617027 82.12708412 18.22093736 82.14531975 11.625 82.1875 C10.83029297 82.208125 10.03558594 82.22875 9.21679688 82.25 C3.39763772 82.2885056 -0.37097667 81.16991513 -5.21411133 77.78222656 C-7.32724869 74.89124957 -6.84661428 72.26031884 -6.75 68.75 C-6.70939453 66.84154297 -6.70939453 66.84154297 -6.66796875 64.89453125 C-6.63316406 63.91871094 -6.59835938 62.94289063 -6.5625 61.9375 C-7.49425049 61.95415459 -7.49425049 61.95415459 -8.44482422 61.97114563 C-14.93393516 62.08211589 -21.42277476 62.15732328 -27.91259766 62.2121582 C-30.33165442 62.23723872 -32.75063589 62.27131149 -35.16943359 62.31469727 C-38.65481184 62.37563045 -42.13918464 62.40377563 -45.625 62.42578125 C-46.69927246 62.45158768 -47.77354492 62.4773941 -48.88037109 62.50398254 C-55.7405825 62.50652141 -60.27523257 61.4310909 -65.5625 56.9375 C-70.77009138 51.32932467 -70.91824252 46.58365078 -70.8359375 39.16796875 C-70.39822769 33.99674004 -68.88199133 30.96100056 -64.87890625 27.46875 C-63.66450615 26.48678347 -62.44570749 25.5102327 -61.22265625 24.5390625 C-59.37984923 22.76129573 -58.5414389 21.20189695 -57.5 18.875 C-55.56535237 14.67520243 -53.66112691 12.32215566 -49.5625 9.9375 C-44.71201174 9.33987537 -40.21135248 9.38788251 -35.5625 10.9375 C-35.335625 10.380625 -35.10875 9.82375 -34.875 9.25 C-27.86989084 -3.09233519 -12.39425746 -5.66273185 0 0 Z M-1.5625 45.9375 C-1.45636164 48.38974694 -1.45636164 48.38974694 -0.5625 50.9375 C3.38095222 53.06929244 6.94556114 53.23557186 11.375 53.25 C12.55964844 53.26675781 13.74429688 53.28351563 14.96484375 53.30078125 C18.73839716 52.90602257 21.17541176 51.82502892 24.4375 49.9375 C24.33136164 47.48525306 24.33136164 47.48525306 23.4375 44.9375 C19.49404778 42.80570756 15.92943886 42.63942814 11.5 42.625 C10.31535156 42.60824219 9.13070312 42.59148438 7.91015625 42.57421875 C4.13660284 42.96897743 1.69958824 44.04997108 -1.5625 45.9375 Z M-1.5625 55.9375 C-0.89659463 59.06793473 -0.89659463 59.06793473 1.56640625 60.10546875 C4.93950864 61.08298005 7.8639895 61.23856348 11.375 61.25 C12.55964844 61.26675781 13.74429688 61.28351563 14.96484375 61.30078125 C18.73839716 60.90602257 21.17541176 59.82502892 24.4375 57.9375 C24.1075 57.2775 23.7775 56.6175 23.4375 55.9375 C22.4475 56.2675 21.4575 56.5975 20.4375 56.9375 C19.07655708 57.02876911 17.71165442 57.06815452 16.34765625 57.0703125 C15.56326172 57.07160156 14.77886719 57.07289062 13.97070312 57.07421875 C13.15537109 57.07035156 12.34003906 57.06648438 11.5 57.0625 C10.68853516 57.06636719 9.87707031 57.07023437 9.04101562 57.07421875 C7.86249023 57.07228516 7.86249023 57.07228516 6.66015625 57.0703125 C5.58906616 57.06862061 5.58906616 57.06862061 4.49633789 57.06689453 C2.36966104 56.93323643 0.48395477 56.51710342 -1.5625 55.9375 Z M-1.5625 63.9375 C-0.89659463 67.06793473 -0.89659463 67.06793473 1.56640625 68.10546875 C4.93950864 69.08298005 7.8639895 69.23856348 11.375 69.25 C12.55964844 69.26675781 13.74429688 69.28351563 14.96484375 69.30078125 C18.73839716 68.90602257 21.17541176 67.82502892 24.4375 65.9375 C24.1075 65.2775 23.7775 64.6175 23.4375 63.9375 C22.4475 64.2675 21.4575 64.5975 20.4375 64.9375 C19.07655708 65.02876911 17.71165442 65.06815452 16.34765625 65.0703125 C15.56326172 65.07160156 14.77886719 65.07289062 13.97070312 65.07421875 C13.15537109 65.07035156 12.34003906 65.06648438 11.5 65.0625 C10.68853516 65.06636719 9.87707031 65.07023437 9.04101562 65.07421875 C7.86249023 65.07228516 7.86249023 65.07228516 6.66015625 65.0703125 C5.58906616 65.06862061 5.58906616 65.06862061 4.49633789 65.06689453 C2.36966104 64.93323643 0.48395477 64.51710342 -1.5625 63.9375 Z M-1.5625 71.9375 C-0.89659463 75.06793473 -0.89659463 75.06793473 1.56640625 76.10546875 C4.93950864 77.08298005 7.8639895 77.23856348 11.375 77.25 C12.55964844 77.26675781 13.74429688 77.28351563 14.96484375 77.30078125 C18.73839716 76.90602257 21.17541176 75.82502892 24.4375 73.9375 C24.1075 73.2775 23.7775 72.6175 23.4375 71.9375 C22.4475 72.2675 21.4575 72.5975 20.4375 72.9375 C19.07655708 73.02876911 17.71165442 73.06815452 16.34765625 73.0703125 C15.56326172 73.07160156 14.77886719 73.07289062 13.97070312 73.07421875 C13.15537109 73.07035156 12.34003906 73.06648438 11.5 73.0625 C10.68853516 73.06636719 9.87707031 73.07023437 9.04101562 73.07421875 C7.86249023 73.07228516 7.86249023 73.07228516 6.66015625 73.0703125 C5.58906616 73.06862061 5.58906616 73.06862061 4.49633789 73.06689453 C2.36966104 72.93323643 0.48395477 72.51710342 -1.5625 71.9375 Z " fill="#FFFFFF" transform="translate(70.5625,18.0625)"/>
</svg>
