<?xml version="1.0" encoding="UTF-8"?>
<svg version="1.1" xmlns="http://www.w3.org/2000/svg" width="100" height="100">
<path d="M0 0 C0.741931 0.28713364 1.483862 0.57426727 2.24827576 0.87010193 C4.58494981 1.77704979 6.9154644 2.69873904 9.24609375 3.62109375 C10.84271309 4.24382877 12.43971549 4.8655826 14.03710938 5.48632812 C17.92378549 6.99912506 21.80501648 8.52515837 25.68359375 10.05859375 C25.68359375 14.01859375 25.68359375 17.97859375 25.68359375 22.05859375 C24.36359375 22.05859375 23.04359375 22.05859375 21.68359375 22.05859375 C21.68359375 32.61859375 21.68359375 43.17859375 21.68359375 54.05859375 C-2.07640625 54.05859375 -25.83640625 54.05859375 -50.31640625 54.05859375 C-50.31640625 43.49859375 -50.31640625 32.93859375 -50.31640625 22.05859375 C-51.63640625 22.05859375 -52.95640625 22.05859375 -54.31640625 22.05859375 C-54.31640625 18.09859375 -54.31640625 14.13859375 -54.31640625 10.05859375 C-49.22142041 8.02128756 -44.11709065 6.01027195 -39.00268555 4.0222168 C-37.26685358 3.34335742 -35.53370893 2.65758217 -33.8034668 1.96459961 C-31.30554041 0.9655729 -28.79877655 -0.0075919 -26.2890625 -0.9765625 C-25.52618423 -1.2879567 -24.76330597 -1.59935089 -23.97731018 -1.92018127 C-15.35449891 -5.18674345 -8.31150007 -3.3281174 0 0 Z M-35.31640625 18.05859375 C-35.31640625 19.37859375 -35.31640625 20.69859375 -35.31640625 22.05859375 C-33.99640625 22.05859375 -32.67640625 22.05859375 -31.31640625 22.05859375 C-31.31640625 28.65859375 -31.31640625 35.25859375 -31.31640625 42.05859375 C-29.99640625 42.05859375 -28.67640625 42.05859375 -27.31640625 42.05859375 C-27.31640625 35.45859375 -27.31640625 28.85859375 -27.31640625 22.05859375 C-25.99640625 22.05859375 -24.67640625 22.05859375 -23.31640625 22.05859375 C-23.31640625 20.73859375 -23.31640625 19.41859375 -23.31640625 18.05859375 C-27.27640625 18.05859375 -31.23640625 18.05859375 -35.31640625 18.05859375 Z M-17.31640625 18.05859375 C-18.84019299 22.39144821 -19.98121434 26.69299927 -20.94140625 31.18359375 C-21.20179687 32.38242188 -21.4621875 33.58125 -21.73046875 34.81640625 C-22.43496758 38.16551508 -22.43496758 38.16551508 -22.31640625 42.05859375 C-21.32640625 42.05859375 -20.33640625 42.05859375 -19.31640625 42.05859375 C-18.98640625 40.07859375 -18.65640625 38.09859375 -18.31640625 36.05859375 C-16.33640625 36.05859375 -14.35640625 36.05859375 -12.31640625 36.05859375 C-12.31640625 37.70859375 -12.31640625 39.35859375 -12.31640625 41.05859375 C-10.99640625 41.38859375 -9.67640625 41.71859375 -8.31640625 42.05859375 C-9.51601328 34.03143607 -10.8138677 26.03483565 -12.31640625 18.05859375 C-13.96640625 18.05859375 -15.61640625 18.05859375 -17.31640625 18.05859375 Z M-6.31640625 18.05859375 C-6.08824219 18.61546875 -5.86007813 19.17234375 -5.625 19.74609375 C-2.54579202 27.92049342 -3.75467279 33.86104669 -6.31640625 42.05859375 C-4.99640625 42.05859375 -3.67640625 42.05859375 -2.31640625 42.05859375 C-1.65640625 39.41859375 -0.99640625 36.77859375 -0.31640625 34.05859375 C1.01692708 36.72526042 2.35026042 39.39192708 3.68359375 42.05859375 C4.67359375 42.05859375 5.66359375 42.05859375 6.68359375 42.05859375 C6.22519332 39.38459123 5.72494504 37.14589091 4.55859375 34.68359375 C2.72273179 29.17600788 5.0418083 23.42175954 6.68359375 18.05859375 C5.36359375 18.38859375 4.04359375 18.71859375 2.68359375 19.05859375 C2.35359375 21.69859375 2.02359375 24.33859375 1.68359375 27.05859375 C1.02359375 27.05859375 0.36359375 27.05859375 -0.31640625 27.05859375 C-0.46078125 25.94484375 -0.60515625 24.83109375 -0.75390625 23.68359375 C-1.1001266 20.23717328 -1.1001266 20.23717328 -2.31640625 18.05859375 C-3.63640625 18.05859375 -4.95640625 18.05859375 -6.31640625 18.05859375 Z " fill="#FFFFFF" transform="translate(64.31640625,45.94140625)"/>
<path d="M0 0 C1.59752849 0.00031727 3.19507824 0.01165096 4.79248047 0.03173828 C6.05341019 0.03598312 6.05341019 0.03598312 7.33981323 0.04031372 C10.02990843 0.05152648 12.71967307 0.07663275 15.40966797 0.10205078 C17.23127775 0.11207918 19.05289274 0.12120527 20.87451172 0.12939453 C25.34469155 0.15146937 29.81462368 0.18600644 34.28466797 0.22705078 C34.94466797 1.54705078 35.60466797 2.86705078 36.28466797 4.22705078 C35.62466797 4.88705078 34.96466797 5.54705078 34.28466797 6.22705078 C33.97828207 8.9614004 33.77333436 11.60984899 33.65966797 14.35205078 C33.62099609 15.10615234 33.58232422 15.86025391 33.54248047 16.63720703 C33.44815765 18.50008262 33.36532134 20.36353333 33.28466797 22.22705078 C31.96466797 21.89705078 30.64466797 21.56705078 29.28466797 21.22705078 C29.28466797 16.27705078 29.28466797 11.32705078 29.28466797 6.22705078 C27.96466797 6.22705078 26.64466797 6.22705078 25.28466797 6.22705078 C25.28466797 10.51705078 25.28466797 14.80705078 25.28466797 19.22705078 C23.96466797 18.89705078 22.64466797 18.56705078 21.28466797 18.22705078 C21.28466797 14.26705078 21.28466797 10.30705078 21.28466797 6.22705078 C19.96466797 6.22705078 18.64466797 6.22705078 17.28466797 6.22705078 C17.28466797 9.52705078 17.28466797 12.82705078 17.28466797 16.22705078 C15.96466797 16.22705078 14.64466797 16.22705078 13.28466797 16.22705078 C13.28466797 12.92705078 13.28466797 9.62705078 13.28466797 6.22705078 C11.96466797 6.22705078 10.64466797 6.22705078 9.28466797 6.22705078 C9.28466797 10.18705078 9.28466797 14.14705078 9.28466797 18.22705078 C7.96466797 18.55705078 6.64466797 18.88705078 5.28466797 19.22705078 C5.28466797 14.93705078 5.28466797 10.64705078 5.28466797 6.22705078 C3.96466797 6.22705078 2.64466797 6.22705078 1.28466797 6.22705078 C1.28466797 11.17705078 1.28466797 16.12705078 1.28466797 21.22705078 C-0.03533203 21.55705078 -1.35533203 21.88705078 -2.71533203 22.22705078 C-2.78880859 20.56416016 -2.78880859 20.56416016 -2.86376953 18.86767578 C-2.93882418 17.40411013 -3.01437084 15.94056966 -3.09033203 14.47705078 C-3.12126953 13.74744141 -3.15220703 13.01783203 -3.18408203 12.26611328 C-3.39018143 8.48762423 -3.63046046 5.4475841 -5.71533203 2.22705078 C-3.71533203 0.22705078 -3.71533203 0.22705078 0 0 Z " fill="#FFFFFF" transform="translate(34.71533203125,22.77294921875)"/>
<path d="M0 0 C1.32 0 2.64 0 4 0 C4 2.64 4 5.28 4 8 C5.03125 8.061875 6.0625 8.12375 7.125 8.1875 C12.8622644 9.39047479 15.7238087 12.08571305 19 17 C19 17.99 19 18.98 19 20 C7.78 20 -3.44 20 -15 20 C-13.66416165 14.65664661 -11.72507229 12.04223117 -7 9.1875 C-4 8 -4 8 0 8 C0 5.36 0 2.72 0 0 Z " fill="#FFFFFF" transform="translate(48,0)"/>
<path d="M0 0 C0.66 0 1.32 0 2 0 C2.33 3.63 2.66 7.26 3 11 C1.68 11 0.36 11 -1 11 C-0.67 7.37 -0.34 3.74 0 0 Z " fill="#FFFFFF" transform="translate(48,68)"/>
</svg>
