<?xml version="1.0" encoding="UTF-8"?>
<svg version="1.1" xmlns="http://www.w3.org/2000/svg" width="100" height="100">
<path d="M0 0 C45.06762894 -2.37198047 45.06762894 -2.37198047 54.60644531 5.78222656 C60.09902004 11.7708107 63.87848328 17.36212464 64.125 25.625 C63.6328125 28.7890625 63.6328125 28.7890625 63 31 C62.01 31 61.02 31 60 31 C60 27.7 60 24.4 60 21 C54.06 21 48.12 21 42 21 C42 15.39 42 9.78 42 4 C29.13 4 16.26 4 3 4 C3 27.43 3 50.86 3 75 C11.91 75 20.82 75 30 75 C30 76.32 30 77.64 30 79 C20.1 79 10.2 79 0 79 C0 52.93 0 26.86 0 0 Z M45 6 C45 9.96 45 13.92 45 18 C48.96 18 52.92 18 57 18 C53.26704728 13.46712884 49.61513452 9.62617712 45 6 Z " fill="#FFFFFF" transform="translate(15,8)"/>
<path d="M0 0 C1.56047445 0.00015913 3.12095416 0.00585397 4.68139648 0.01586914 C5.91115456 0.01799156 5.91115456 0.01799156 7.16575623 0.02015686 C9.79470406 0.0257725 12.42356797 0.0383276 15.05249023 0.05102539 C16.8304838 0.05603838 18.60847869 0.06060163 20.38647461 0.06469727 C24.75434569 0.07574701 29.12215371 0.09302208 33.48999023 0.11352539 C33.51525811 7.21597538 33.53282224 14.31841387 33.54492188 21.42089844 C33.54996372 23.83919711 33.55679701 26.25749273 33.56542969 28.67578125 C33.5775018 32.14331823 33.58321987 35.61081505 33.58764648 39.07836914 C33.59280777 40.16689682 33.59796906 41.2554245 33.60328674 42.37693787 C33.60336227 43.37789993 33.60343781 44.378862 33.60351562 45.41015625 C33.60573624 46.29618027 33.60795685 47.18220428 33.61024475 48.09507751 C33.48999023 50.11352539 33.48999023 50.11352539 32.48999023 51.11352539 C29.91977181 51.21446765 27.37700992 51.25323776 24.80639648 51.24633789 C23.65034157 51.24777298 23.65034157 51.24777298 22.47093201 51.24923706 C20.8375541 51.24991888 19.20417351 51.24806448 17.57080078 51.24389648 C15.06658851 51.23855546 12.56255621 51.24383763 10.05834961 51.25024414 C8.47436484 51.24958322 6.89038018 51.24830176 5.30639648 51.24633789 C4.55427383 51.24836212 3.80215118 51.25038635 3.02723694 51.25247192 C-2.28009728 51.22848163 -2.28009728 51.22848163 -4.51000977 50.11352539 C-4.53527814 43.15349092 -4.55284199 36.19346819 -4.56494141 29.23339844 C-4.56998318 26.86360227 -4.57681642 24.49380924 -4.58544922 22.12402344 C-4.59752166 18.725985 -4.60323947 15.32798754 -4.60766602 11.92993164 C-4.6128273 10.86327774 -4.61798859 9.79662384 -4.62330627 8.69764709 C-4.62338181 7.71670578 -4.62345734 6.73576447 -4.62353516 5.72509766 C-4.62575577 4.85683853 -4.62797638 3.98857941 -4.63026428 3.0940094 C-4.41784823 -0.40429236 -3.63083359 0.11743323 0 0 Z M-1.51000977 3.11352539 C-1.51000977 17.63352539 -1.51000977 32.15352539 -1.51000977 47.11352539 C9.04999023 47.11352539 19.60999023 47.11352539 30.48999023 47.11352539 C30.48999023 32.59352539 30.48999023 18.07352539 30.48999023 3.11352539 C19.92999023 3.11352539 9.36999023 3.11352539 -1.51000977 3.11352539 Z " fill="#FFFFFF" transform="translate(51.510009765625,40.886474609375)"/>
<path d="M0 0 C8.58 0 17.16 0 26 0 C26 4.29 26 8.58 26 13 C17.42 13 8.84 13 0 13 C0 8.71 0 4.42 0 0 Z M4 3 C4 5.31 4 7.62 4 10 C10.27 10 16.54 10 23 10 C23 7.69 23 5.38 23 3 C16.73 3 10.46 3 4 3 Z " fill="#FFFFFF" transform="translate(53,47)"/>
<path d="M0 0 C1.32 0 2.64 0 4 0 C4 0.99 4 1.98 4 3 C2.68 3 1.36 3 0 3 C0 2.01 0 1.02 0 0 Z " fill="#FFFFFF" transform="translate(68,82)"/>
<path d="M0 0 C1.32 0 2.64 0 4 0 C4 0.99 4 1.98 4 3 C2.68 3 1.36 3 0 3 C0 2.01 0 1.02 0 0 Z " fill="#FFFFFF" transform="translate(63,82)"/>
<path d="M0 0 C1.32 0 2.64 0 4 0 C4 0.99 4 1.98 4 3 C2.68 3 1.36 3 0 3 C0 2.01 0 1.02 0 0 Z " fill="#FFFFFF" transform="translate(58,82)"/>
<path d="M0 0 C1.32 0 2.64 0 4 0 C4 0.99 4 1.98 4 3 C2.68 3 1.36 3 0 3 C0 2.01 0 1.02 0 0 Z " fill="#FFFFFF" transform="translate(53,82)"/>
<path d="M0 0 C1.32 0 2.64 0 4 0 C4 0.99 4 1.98 4 3 C2.68 3 1.36 3 0 3 C0 2.01 0 1.02 0 0 Z " fill="#FFFFFF" transform="translate(68,77)"/>
<path d="M0 0 C1.32 0 2.64 0 4 0 C4 0.99 4 1.98 4 3 C2.68 3 1.36 3 0 3 C0 2.01 0 1.02 0 0 Z " fill="#FFFFFF" transform="translate(63,77)"/>
<path d="M0 0 C1.32 0 2.64 0 4 0 C4 0.99 4 1.98 4 3 C2.68 3 1.36 3 0 3 C0 2.01 0 1.02 0 0 Z " fill="#FFFFFF" transform="translate(58,77)"/>
<path d="M0 0 C1.32 0 2.64 0 4 0 C4 0.99 4 1.98 4 3 C2.68 3 1.36 3 0 3 C0 2.01 0 1.02 0 0 Z " fill="#FFFFFF" transform="translate(53,77)"/>
<path d="M0 0 C1.32 0 2.64 0 4 0 C4 0.99 4 1.98 4 3 C2.68 3 1.36 3 0 3 C0 2.01 0 1.02 0 0 Z " fill="#FFFFFF" transform="translate(68,72)"/>
<path d="M0 0 C1.32 0 2.64 0 4 0 C4 0.99 4 1.98 4 3 C2.68 3 1.36 3 0 3 C0 2.01 0 1.02 0 0 Z " fill="#FFFFFF" transform="translate(63,72)"/>
<path d="M0 0 C1.32 0 2.64 0 4 0 C4 0.99 4 1.98 4 3 C2.68 3 1.36 3 0 3 C0 2.01 0 1.02 0 0 Z " fill="#FFFFFF" transform="translate(58,72)"/>
<path d="M0 0 C1.32 0 2.64 0 4 0 C4 0.99 4 1.98 4 3 C2.68 3 1.36 3 0 3 C0 2.01 0 1.02 0 0 Z " fill="#FFFFFF" transform="translate(53,72)"/>
<path d="M0 0 C1.32 0 2.64 0 4 0 C4 0.99 4 1.98 4 3 C2.68 3 1.36 3 0 3 C0 2.01 0 1.02 0 0 Z " fill="#FFFFFF" transform="translate(68,67)"/>
<path d="M0 0 C1.32 0 2.64 0 4 0 C4 0.99 4 1.98 4 3 C2.68 3 1.36 3 0 3 C0 2.01 0 1.02 0 0 Z " fill="#FFFFFF" transform="translate(63,67)"/>
<path d="M0 0 C1.32 0 2.64 0 4 0 C4 0.99 4 1.98 4 3 C2.68 3 1.36 3 0 3 C0 2.01 0 1.02 0 0 Z " fill="#FFFFFF" transform="translate(58,67)"/>
<path d="M0 0 C1.32 0 2.64 0 4 0 C4 0.99 4 1.98 4 3 C2.68 3 1.36 3 0 3 C0 2.01 0 1.02 0 0 Z " fill="#FFFFFF" transform="translate(53,67)"/>
<path d="M0 0 C0.66 0 1.32 0 2 0 C2 1.32 2 2.64 2 4 C1.01 3.67 0.02 3.34 -1 3 C-0.67 2.01 -0.34 1.02 0 0 Z " fill="#FFFFFF" transform="translate(23,78)"/>
<path d="M0 0 C0.66 0 1.32 0 2 0 C2 1.32 2 2.64 2 4 C1.01 3.67 0.02 3.34 -1 3 C-0.67 2.01 -0.34 1.02 0 0 Z " fill="#FFFFFF" transform="translate(23,73)"/>
<path d="M0 0 C0.66 0 1.32 0 2 0 C2 1.32 2 2.64 2 4 C1.01 3.67 0.02 3.34 -1 3 C-0.67 2.01 -0.34 1.02 0 0 Z " fill="#FFFFFF" transform="translate(23,68)"/>
<path d="M0 0 C0.66 0 1.32 0 2 0 C2 1.32 2 2.64 2 4 C1.01 3.67 0.02 3.34 -1 3 C-0.67 2.01 -0.34 1.02 0 0 Z " fill="#FFFFFF" transform="translate(23,63)"/>
<path d="M0 0 C0.66 0 1.32 0 2 0 C2 1.32 2 2.64 2 4 C1.01 3.67 0.02 3.34 -1 3 C-0.67 2.01 -0.34 1.02 0 0 Z " fill="#FFFFFF" transform="translate(23,58)"/>
<path d="M0 0 C0.66 0 1.32 0 2 0 C2 1.32 2 2.64 2 4 C1.01 3.67 0.02 3.34 -1 3 C-0.67 2.01 -0.34 1.02 0 0 Z " fill="#FFFFFF" transform="translate(23,53)"/>
<path d="M0 0 C0.66 0 1.32 0 2 0 C2 1.32 2 2.64 2 4 C1.01 3.67 0.02 3.34 -1 3 C-0.67 2.01 -0.34 1.02 0 0 Z " fill="#FFFFFF" transform="translate(23,48)"/>
<path d="M0 0 C0.66 0 1.32 0 2 0 C2 1.32 2 2.64 2 4 C1.01 3.67 0.02 3.34 -1 3 C-0.67 2.01 -0.34 1.02 0 0 Z " fill="#FFFFFF" transform="translate(23,43)"/>
<path d="M0 0 C0.66 0 1.32 0 2 0 C2 1.32 2 2.64 2 4 C1.01 3.67 0.02 3.34 -1 3 C-0.67 2.01 -0.34 1.02 0 0 Z " fill="#FFFFFF" transform="translate(23,38)"/>
<path d="M0 0 C0.66 0 1.32 0 2 0 C2 1.32 2 2.64 2 4 C1.01 3.67 0.02 3.34 -1 3 C-0.67 2.01 -0.34 1.02 0 0 Z " fill="#FFFFFF" transform="translate(23,33)"/>
<path d="M0 0 C0.66 0 1.32 0 2 0 C2 1.32 2 2.64 2 4 C1.01 3.67 0.02 3.34 -1 3 C-0.67 2.01 -0.34 1.02 0 0 Z " fill="#FFFFFF" transform="translate(23,28)"/>
<path d="M0 0 C0.66 0 1.32 0 2 0 C2 1.32 2 2.64 2 4 C1.01 3.67 0.02 3.34 -1 3 C-0.67 2.01 -0.34 1.02 0 0 Z " fill="#FFFFFF" transform="translate(23,23)"/>
<path d="M0 0 C0.66 0 1.32 0 2 0 C2 1.32 2 2.64 2 4 C1.01 3.67 0.02 3.34 -1 3 C-0.67 2.01 -0.34 1.02 0 0 Z " fill="#FFFFFF" transform="translate(23,18)"/>
<path d="M0 0 C0.66 0 1.32 0 2 0 C2 1.32 2 2.64 2 4 C1.01 3.67 0.02 3.34 -1 3 C-0.67 2.01 -0.34 1.02 0 0 Z " fill="#FFFFFF" transform="translate(23,13)"/>
<path d="M0 0 C0.99 0 1.98 0 3 0 C3 0.99 3 1.98 3 3 C2.01 3 1.02 3 0 3 C0 2.01 0 1.02 0 0 Z " fill="#FFFFFF" transform="translate(76,82)"/>
<path d="M0 0 C0.99 0 1.98 0 3 0 C3 0.99 3 1.98 3 3 C2.01 3 1.02 3 0 3 C0 2.01 0 1.02 0 0 Z " fill="#FFFFFF" transform="translate(76,77)"/>
<path d="M0 0 C0.99 0 1.98 0 3 0 C3 0.99 3 1.98 3 3 C2.01 3 1.02 3 0 3 C0 2.01 0 1.02 0 0 Z " fill="#FFFFFF" transform="translate(76,72)"/>
<path d="M0 0 C0.99 0 1.98 0 3 0 C3 0.99 3 1.98 3 3 C2.01 3 1.02 3 0 3 C0 2.01 0 1.02 0 0 Z " fill="#FFFFFF" transform="translate(76,67)"/>
<path d="M0 0 C0.99 0 1.98 0 3 0 C3 0.99 3 1.98 3 3 C2.01 3 1.02 3 0 3 C0 2.01 0 1.02 0 0 Z " fill="#FFFFFF" transform="translate(71,52)"/>
<path d="M0 0 C0.99 0 1.98 0 3 0 C3 0.99 3 1.98 3 3 C2.01 3 1.02 3 0 3 C0 2.01 0 1.02 0 0 Z " fill="#FFFFFF" transform="translate(66,52)"/>
</svg>
