<svg xmlns="http://www.w3.org/2000/svg" version="1.1" xmlns:xlink="http://www.w3.org/1999/xlink" xmlns:svgjs="http://svgjs.com/svgjs" width="512" height="512" x="0" y="0" viewBox="0 0 64 64" style="enable-background:new 0 0 512 512" xml:space="preserve" class=""><g><path d="M31.976 45.999c6.192.167 14.117-4.62 14.709-8.899a1.005 1.005 0 0 0-1.108-1.143 10.595 10.595 0 0 1-3.455-.04c5.23-4.085 1.37-8.202-1.238-12.531a2.926 2.926 0 0 1-.461-2.197 1 1 0 0 0-1.153-1.192 3.615 3.615 0 0 0-2.945 2.676 16.927 16.927 0 0 0-5.315-8.14 1.1 1.1 0 0 0-1.322-.448c-.771.313-.609 1.273-.7 1.934a11.004 11.004 0 0 1-3.55 8.084c-.352-1.998-.637-3.963-2.245-3.56a.999.999 0 0 0-.604.954c.02 1.731-1.405 3.488-2.111 5.075-1.868 3.094-2.383 6.798.685 9.34a9.568 9.568 0 0 1-2.713.01 1.008 1.008 0 0 0-1.095 1.304C19.033 42.273 25.395 46 31.975 46Zm-9.728-8.236a1.671 1.671 0 0 0 .728-2.94c-4.006-2.846-1.068-6.548.577-9.79 1.692 4.499 6.583-3.076 6.91-5.408a13.172 13.172 0 0 0 .43-2.386 12.994 12.994 0 0 1 3.714 7.038 1.657 1.657 0 0 0 3.239.2 8.012 8.012 0 0 1 .633-1.72c.607 2.113 2.251 3.925 3.287 5.852 1.609 2.79 1.346 3.945-1.392 6.165a1.673 1.673 0 0 0 .483 2.862 9.056 9.056 0 0 0 3.355.435c-1.526 2.538-6.172 5.44-10.879 5.867-5.462.496-11.191-2.132-13.43-5.926a14.282 14.282 0 0 0 2.345-.249Z" fill="#f36800" data-original="#000000" class=""></path><path d="M14.728 50.263A36.438 36.438 0 0 0 32.007 60a36.452 36.452 0 0 0 17.27-9.737C62.29 35.95 59.586 23.813 59.95 14a1 1 0 0 0-1-1 8.01 8.01 0 0 1-8-8 1 1 0 0 0-1-1H14.053a1 1 0 0 0-1 1 8.01 8.01 0 0 1-8 8 1 1 0 0 0-1 1c.378 9.846-2.409 21.883 10.674 36.263ZM6.054 21v-6.05A10.018 10.018 0 0 0 15.004 6H49a10.018 10.018 0 0 0 8.95 8.95l.001 6.103c.95 13.337-6.615 31.945-25.95 36.907C12.65 52.983 5.042 34.34 6.055 21Z" fill="#f36800" data-original="#000000" class=""></path><path d="M31.72 55.881a1.005 1.005 0 0 0 .565 0 33.087 33.087 0 0 0 14.149-8.353c9.61-9.717 9.717-22.58 9.521-26.295l-.004-3.785a1 1 0 0 0-.691-.95 12.051 12.051 0 0 1-7.728-7.728 1 1 0 0 0-.95-.692H17.424a1 1 0 0 0-.951.692 12.051 12.051 0 0 1-7.728 7.727 1 1 0 0 0-.691.951v3.63c-.966 12.193 5.726 29.75 23.666 34.803ZM10.047 21.37q.009-.146.009-.29v-2.924a14.067 14.067 0 0 0 8.077-8.077h27.742a14.067 14.067 0 0 0 8.077 8.077v2.923c0 .089.003.178.007.264.815 11.224-5.228 27.687-21.955 32.536-16.72-4.851-22.82-21.337-21.957-32.51Z" fill="#f36800" data-original="#000000" class=""></path></g></svg>