<?xml version="1.0" encoding="UTF-8"?>
<svg version="1.1" xmlns="http://www.w3.org/2000/svg" width="100" height="100">
<path d="M0 0 C0.77601562 0.00966797 1.55203125 0.01933594 2.3515625 0.02929688 C8.03555888 0.14277944 8.03555888 0.14277944 10.375 1.3125 C10.417721 2.97861905 10.41563832 4.64632885 10.375 6.3125 C9.375 7.3125 9.375 7.3125 5.99609375 7.41015625 C4.60152923 7.40348369 3.20698257 7.39152532 1.8125 7.375 C1.10158203 7.37048828 0.39066406 7.36597656 -0.34179688 7.36132812 C-2.10290013 7.34950864 -3.86396036 7.33157263 -5.625 7.3125 C-4.0382663 13.31692399 -2.836471 16.3856174 2.5625 19.625 C7.71482949 20.88445832 12.53515157 20.17370565 17.3125 17.9375 C21.17011846 14.89816424 21.75183744 11.98621919 22.375 7.3125 C20.395 7.3125 18.415 7.3125 16.375 7.3125 C15.75 4.9375 15.75 4.9375 15.375 2.3125 C17.375 0.3125 17.375 0.3125 20.6875 -0.0625 C24.375 0.3125 24.375 0.3125 27.3125 1.625 C30.1359496 5.30404039 30.01655801 8.08069936 29.79296875 12.625 C28.97635713 17.8757364 26.22118447 20.50310616 22.5 24.0625 C16.43841164 28.42684362 10.66565355 29.03367748 3.375 28.3125 C-2.26696299 27.05654998 -5.88008089 24.80640293 -9.625 20.3125 C-10.223125 19.61125 -10.82125 18.91 -11.4375 18.1875 C-13.27491952 13.73901065 -13.51990625 9.04070549 -12.625 4.3125 C-9.40829429 -0.70252151 -5.40230616 -0.20394612 0 0 Z " fill="#FFFFFF" transform="translate(41.625,61.6875)"/>
<path d="M0 0 C6.15115521 0.49622765 6.15115521 0.49622765 8.6796875 2.52734375 C12.15755688 6.6987472 13.37780957 9.6565512 13.2890625 15.08984375 C12.82542174 18.59653514 11.3188863 20.57675777 9.01171875 23.1875 C4.66731199 26.31951418 1.25298399 26.5592532 -3.87109375 25.765625 C-7.77473893 24.69968499 -10.0275571 22.55996307 -12.30078125 19.3125 C-13.21534651 16.48566193 -13.24482369 14.13773806 -12.98828125 11.1875 C-10.98828125 9.1875 -10.98828125 9.1875 -8.55078125 9.125 C-5.98828125 10.1875 -5.98828125 10.1875 -4.42578125 13.6875 C-3.95140625 14.8425 -3.47703125 15.9975 -2.98828125 17.1875 C-1.13367846 18.58966123 -1.13367846 18.58966123 1.01171875 18.1875 C3.28315949 16.33317913 3.28315949 16.33317913 5.01171875 14.1875 C4.43729231 11.74471737 4.43729231 11.74471737 3.01171875 9.1875 C1.01991466 8.17127342 -0.9798076 7.17037008 -2.98828125 6.1875 C-3.98828125 4.125 -3.98828125 4.125 -3.98828125 2.1875 C-1.98828125 0.1875 -1.98828125 0.1875 0 0 Z " fill="#FFFFFF" transform="translate(49.98828125,32.8125)"/>
<path d="M0 0 C2.41880375 1.8812918 3.33791905 2.84792427 4.25 5.75 C4.74276537 10.38199447 4.12025842 13.05966775 1.25 16.75 C-1.96522137 19.07826375 -4.85830425 19.14711181 -8.75 18.75 C-11.55915461 17.47311154 -13.25106764 16.43900183 -15.0625 13.9375 C-16.33476509 9.88938379 -16.25914951 6.87012891 -14.5 3 C-10.65742476 -1.94045388 -5.66014813 -2.57279461 0 0 Z M-6.75 5.75 C-7.08 7.4 -7.41 9.05 -7.75 10.75 C-6.1 10.42 -4.45 10.09 -2.75 9.75 C-3.41 8.43 -4.07 7.11 -4.75 5.75 C-5.41 5.75 -6.07 5.75 -6.75 5.75 Z " fill="#FFFFFF" transform="translate(81.75,40.25)"/>
<path d="M0 0 C2.41880375 1.8812918 3.33791905 2.84792427 4.25 5.75 C4.74276537 10.38199447 4.12025842 13.05966775 1.25 16.75 C-1.96522137 19.07826375 -4.85830425 19.14711181 -8.75 18.75 C-11.55915461 17.47311154 -13.25106764 16.43900183 -15.0625 13.9375 C-16.33476509 9.88938379 -16.25914951 6.87012891 -14.5 3 C-10.65742476 -1.94045388 -5.66014813 -2.57279461 0 0 Z M-6.75 5.75 C-7.41 7.07 -8.07 8.39 -8.75 9.75 C-6.275 10.245 -6.275 10.245 -3.75 10.75 C-4.08 9.1 -4.41 7.45 -4.75 5.75 C-5.41 5.75 -6.07 5.75 -6.75 5.75 Z " fill="#FFFFFF" transform="translate(29.75,40.25)"/>
<path d="M0 0 C1.15886719 0.02449219 2.31773438 0.04898438 3.51171875 0.07421875 C6.3125 0.3125 6.3125 0.3125 7.3125 1.3125 C7.4375 3.8125 7.4375 3.8125 7.3125 6.3125 C6.3125 7.3125 6.3125 7.3125 4.02734375 7.41015625 C2.65255859 7.39275391 2.65255859 7.39275391 1.25 7.375 C0.33089844 7.36597656 -0.58820312 7.35695313 -1.53515625 7.34765625 C-2.24542969 7.33605469 -2.95570312 7.32445313 -3.6875 7.3125 C-3.43074087 9.80755992 -3.43074087 9.80755992 -1.6875 12.3125 C0.87441028 13.3760157 3.40592502 14.07013142 6.09765625 14.734375 C8.3125 15.3125 8.3125 15.3125 9.3125 16.3125 C9.35313832 17.97867115 9.355221 19.64638095 9.3125 21.3125 C5.54783574 23.19483213 1.28747654 22.29734493 -2.6875 21.3125 C-6.05865191 19.24631012 -8.90466327 16.87817347 -10.6875 13.3125 C-10.92578125 11.2890625 -10.92578125 11.2890625 -11 8.9375 C-11.03738281 8.16664062 -11.07476563 7.39578125 -11.11328125 6.6015625 C-9.9585082 0.39333305 -5.5607037 -0.18058276 0 0 Z " fill="#FFFFFF" transform="translate(18.6875,61.6875)"/>
<path d="M0 0 C1.15113281 -0.03738281 2.30226563 -0.07476562 3.48828125 -0.11328125 C6.6875 0.3125 6.6875 0.3125 9.06640625 2.0625 C11.32715176 5.20030582 11.37752188 7.21774082 11.203125 10.9921875 C10.2853487 15.12218084 7.93058526 17.7061849 4.6875 20.3125 C0.65738099 22.24359869 -2.8641248 22.71689775 -7.3125 22.3125 C-7.9725 21.6525 -8.6325 20.9925 -9.3125 20.3125 C-8.9375 17.6875 -8.9375 17.6875 -8.3125 15.3125 C-7.61382812 15.15394531 -6.91515625 14.99539062 -6.1953125 14.83203125 C-0.48962948 13.62466721 -0.48962948 13.62466721 3.3125 9.625 C3.43625 8.861875 3.56 8.09875 3.6875 7.3125 C2.97722656 7.32410156 2.26695313 7.33570312 1.53515625 7.34765625 C0.61605469 7.35667969 -0.30304688 7.36570312 -1.25 7.375 C-2.16652344 7.38660156 -3.08304687 7.39820312 -4.02734375 7.41015625 C-6.3125 7.3125 -6.3125 7.3125 -7.3125 6.3125 C-7.4375 3.8125 -7.4375 3.8125 -7.3125 1.3125 C-5.44664046 -0.55335954 -2.50013629 0.05283937 0 0 Z " fill="#FFFFFF" transform="translate(81.3125,61.6875)"/>
<path d="M0 0 C4.55555556 0.55555556 4.55555556 0.55555556 6 2 C6.04080783 3.99958364 6.04254356 6.00045254 6 8 C7.65 8.33 9.3 8.66 11 9 C11.9375 11.0625 11.9375 11.0625 12 14 C9.58136883 17.32037516 6.79155393 20.1856573 3.0234375 21.8984375 C0.05173919 22.0475961 -1.00980301 20.82798154 -3.1875 18.875 C-3.88230469 18.27429688 -4.57710937 17.67359375 -5.29296875 17.0546875 C-7.28814568 14.65317019 -7.82195228 13.10311747 -8 10 C-7.34 9.34 -6.68 8.68 -6 8 C-4.68 8 -3.36 8 -2 8 C-2.04125 7.05125 -2.0825 6.1025 -2.125 5.125 C-2 2 -2 2 0 0 Z " fill="#FFFFFF" transform="translate(48,6)"/>
</svg>
