<?xml version="1.0" encoding="UTF-8"?>
<svg version="1.1" xmlns="http://www.w3.org/2000/svg" width="50" height="50">
<path d="M0 0 C1.32 0 2.64 0 4 0 C4 7.26 4 14.52 4 22 C12.58 22 21.16 22 30 22 C30 15.4 30 8.8 30 2 C31.32 1.67 32.64 1.34 34 1 C34.05786668 4.79160297 34.09355054 8.58309311 34.125 12.375 C34.14175781 13.45523438 34.15851562 14.53546875 34.17578125 15.6484375 C34.18544922 17.1953125 34.18544922 17.1953125 34.1953125 18.7734375 C34.21102295 20.20308838 34.21102295 20.20308838 34.22705078 21.66162109 C34 24 34 24 32 26 C29.05078125 26.25878906 29.05078125 26.25878906 25.3125 26.265625 C24.65419189 26.26753845 23.99588379 26.2694519 23.31762695 26.27142334 C21.9256146 26.2727845 20.53358953 26.26909283 19.14160156 26.26074219 C17.00817411 26.250041 14.87558869 26.26063906 12.7421875 26.2734375 C11.39062314 26.27211589 10.0390593 26.26955347 8.6875 26.265625 C7.45386719 26.26336914 6.22023438 26.26111328 4.94921875 26.25878906 C2 26 2 26 0 24 C-0.22705078 21.56982422 -0.22705078 21.56982422 -0.1953125 18.5546875 C-0.18886719 17.47832031 -0.18242188 16.40195312 -0.17578125 15.29296875 C-0.15902344 14.16503906 -0.14226563 13.03710938 -0.125 11.875 C-0.11597656 10.73933594 -0.10695313 9.60367187 -0.09765625 8.43359375 C-0.07403098 5.62218701 -0.04109013 2.81119702 0 0 Z " fill="#FFFFFF" transform="translate(8,20)"/>
<path d="M0 0 C6.11738291 0.13625102 10.14351782 0.48256451 14.69897461 4.97167969 C17.3730045 8.33206222 17.76147461 9.29868343 17.76147461 13.72167969 C15.78238063 13.74854522 13.8031849 13.76801344 11.82397461 13.78417969 C10.72182617 13.79578125 9.61967773 13.80738281 8.48413086 13.81933594 C5.76147461 13.72167969 5.76147461 13.72167969 4.76147461 12.72167969 C4.76147461 10.08167969 4.76147461 7.44167969 4.76147461 4.72167969 C-0.84852539 4.72167969 -6.45852539 4.72167969 -12.23852539 4.72167969 C-12.23852539 7.36167969 -12.23852539 10.00167969 -12.23852539 12.72167969 C-13.55852539 13.05167969 -14.87852539 13.38167969 -16.23852539 13.72167969 C-16.29244532 11.93033991 -16.33128111 10.13854069 -16.36352539 8.34667969 C-16.38672852 7.34894531 -16.40993164 6.35121094 -16.43383789 5.32324219 C-15.87861175 -2.07236997 -5.513759 0.05933786 0 0 Z " fill="#FFFFFF" transform="translate(24.238525390625,3.2783203125)"/>
<path d="M0 0 C3.74013261 1.75557245 5.65745319 3.0421398 8.0625 6.4375 C8.58033436 9.82744659 8.63168687 13.052336 8.0625 16.4375 C5.50301001 18.99698999 3.79042805 18.69818731 0.296875 18.7109375 C-0.44046875 18.70320313 -1.1778125 18.69546875 -1.9375 18.6875 C-2.67484375 18.69523437 -3.4121875 18.70296875 -4.171875 18.7109375 C-9.6841804 18.6908196 -9.6841804 18.6908196 -11.9375 16.4375 C-12.203125 14.125 -12.203125 14.125 -12.1875 11.4375 C-12.19265625 10.550625 -12.1978125 9.66375 -12.203125 8.75 C-11.9375 6.4375 -11.9375 6.4375 -9.9375 4.4375 C-8.9475 4.4375 -7.9575 4.4375 -6.9375 4.4375 C-6.9375 3.4475 -6.9375 2.4575 -6.9375 1.4375 C-4.28786689 -0.39686139 -3.22179193 -0.61693888 0 0 Z M-6.9375 5.4375 C-7.2675 8.4075 -7.5975 11.3775 -7.9375 14.4375 C-6.9475 14.4375 -5.9575 14.4375 -4.9375 14.4375 C-4.6075 13.1175 -4.2775 11.7975 -3.9375 10.4375 C-2.6175 10.4375 -1.2975 10.4375 0.0625 10.4375 C0.3925 11.7575 0.7225 13.0775 1.0625 14.4375 C2.0525 14.4375 3.0425 14.4375 4.0625 14.4375 C4.48059201 11.60598027 4.48059201 11.60598027 4.0625 8.4375 C-0.04194479 4.33305521 -1.368231 4.04518275 -6.9375 5.4375 Z " fill="#FFFFFF" transform="translate(26.9375,22.5625)"/>
<path d="M0 0 C4.29 0 8.58 0 13 0 C13.33 1.32 13.66 2.64 14 4 C9.38 4 4.76 4 0 4 C0 2.68 0 1.36 0 0 Z " fill="#FFFFFF" transform="translate(16,17)"/>
<path d="M0 0 C2.64 0 5.28 0 8 0 C8 1.32 8 2.64 8 4 C5.36 4 2.72 4 0 4 C0 2.68 0 1.36 0 0 Z " fill="#FFFFFF" transform="translate(16,11)"/>
</svg>
