<?xml version="1.0" encoding="UTF-8"?>
<svg version="1.1" xmlns="http://www.w3.org/2000/svg" width="100" height="100">
<path d="M0 0 C4.52076942 2.10449611 7.19243458 4.89663515 10 9 C10 9.66 10 10.32 10 11 C10.94875 10.67 11.8975 10.34 12.875 10 C18.77024202 8.30706899 25.10775482 8.3068261 31 10 C31.515625 9.0925 32.03125 8.185 32.5625 7.25 C35.06523238 3.62060803 37.74844238 1.28335382 42 0 C49.41501192 -0.94340818 56.35904283 -1.17242982 62.5078125 3.51171875 C64.84723181 5.84501393 66.03336673 7.84233132 67 11 C66.8125 14.3125 66.8125 14.3125 66 17 C63.65061112 18.17469444 62.04926795 18.20034889 59.4296875 18.31640625 C58.53378906 18.35830078 57.63789062 18.40019531 56.71484375 18.44335938 C55.30912109 18.50233398 55.30912109 18.50233398 53.875 18.5625 C52.93011719 18.60568359 51.98523438 18.64886719 51.01171875 18.69335938 C48.67462908 18.79959072 46.3374317 18.90163176 44 19 C44.99 20.485 44.99 20.485 46 22 C46.3359375 23.9375 46.3359375 23.9375 46.375 26 C46.40335937 26.680625 46.43171875 27.36125 46.4609375 28.0625 C46 30 46 30 44.54736328 31.59399414 C40.70882527 33.71265816 37.09911757 33.44827096 32.78125 33.43359375 C31.88635864 33.4388356 30.99146729 33.44407745 30.06945801 33.44947815 C28.17994218 33.45589338 26.2903864 33.45456781 24.40087891 33.44604492 C21.51001965 33.43752951 18.6211331 33.46631107 15.73046875 33.49804688 C13.89322976 33.49965887 12.05598727 33.49908138 10.21875 33.49609375 C9.35511841 33.50732773 8.49148682 33.51856171 7.60168457 33.53013611 C1.6381721 33.46086817 1.6381721 33.46086817 -1.55273438 31.15649414 C-3.50825866 28.24267059 -3.43081047 26.4464838 -3 23 C-2.3682799 21.64975856 -1.70708359 20.31234714 -1 19 C-1.62044189 18.98541748 -2.24088379 18.97083496 -2.88012695 18.95581055 C-5.69154633 18.88133412 -8.50177749 18.78467436 -11.3125 18.6875 C-12.28896484 18.66494141 -13.26542969 18.64238281 -14.27148438 18.61914062 C-15.20927734 18.58369141 -16.14707031 18.54824219 -17.11328125 18.51171875 C-17.97735596 18.48553467 -18.84143066 18.45935059 -19.73168945 18.43237305 C-22.45780321 17.91273604 -23.40333599 17.25143703 -25 15 C-24.90238244 9.72865151 -23.77573457 6.67368769 -20 3 C-13.4947622 -0.87685889 -7.38849647 -0.78974428 0 0 Z M-15 9 C-15 9.33 -15 9.66 -15 10 C-9.72 10 -4.44 10 1 10 C-4.10454394 6.17159205 -9.3734824 5.24898826 -15 9 Z M41 10 C46.28 10 51.56 10 57 10 C56.67 9.34 56.34 8.68 56 8 C49.73415186 5.91138395 46.17446467 6.1191515 41 10 Z M5 24 C5 24.66 5 25.32 5 26 C16.22 26 27.44 26 39 26 C36.08433933 21.14056556 34.13414911 18.95174582 29 17 C19.22249555 14.65913167 12.08941313 17.0878222 5 24 Z " fill="#FFFFFF" transform="translate(29,50)"/>
<path d="M0 0 C3.19972296 2.51893084 5.76680802 5.07620734 7 9 C7.52069173 14.29369921 7.26519644 18.01003212 4.32421875 22.51953125 C1.4897564 25.68844343 -1.87346951 26.87062932 -6.0546875 27.125 C-9.9946697 26.88711428 -11.72928843 26.21774626 -14.875 23.6875 C-18.27434064 19.3883339 -19.48177341 16.76440914 -19.3125 11.09375 C-18.58563623 6.22376276 -16.27539067 2.94912794 -12.3125 0 C-7.93049632 -1.32286904 -4.38876976 -1.3360646 0 0 Z M-10.9375 8.625 C-12.36489363 11.81564458 -11.93843266 13.67939213 -11 17 C-9.11625538 19.28056299 -9.11625538 19.28056299 -6.0625 19.4375 C-2.87190224 19.30667741 -2.87190224 19.30667741 -1 16.875 C0.28562562 13.17882636 -0.40845956 11.50138898 -2 8 C-3.10649557 6.68465212 -3.10649557 6.68465212 -5.875 6.6875 C-9.01831681 6.70557333 -9.01831681 6.70557333 -10.9375 8.625 Z " fill="#FFFFFF" transform="translate(56,30)"/>
<path d="M0 0 C2.77428577 1.26103899 4.48317435 2.31089914 6.3125 4.75 C7.63780889 9.08737455 7.60880922 12.69540881 5.6875 16.8125 C4 19 4 19 1 21 C-3.83854515 21.54628736 -5.88468814 21.75936127 -9.9375 19 C-12.69292627 14.99210725 -13 12.86864262 -13 8 C-10.39786929 1.83705885 -6.70306023 -0.82078289 0 0 Z M-3 7 C-3.99 7.495 -3.99 7.495 -5 8 C-5 9.65 -5 11.3 -5 13 C-3.68 13 -2.36 13 -1 13 C-0.67 12.01 -0.34 11.02 0 10 C-0.99 9.01 -1.98 8.02 -3 7 Z " fill="#FFFFFF" transform="translate(81,26)"/>
<path d="M0 0 C3.30985133 1.9984008 5.35622003 3.25821753 6.703125 6.90234375 C7.55202948 11.70972672 6.75310329 14.87034507 4 19 C0.31106884 21.45928744 -2.71641421 21.69305579 -7 21 C-10.44312714 18.8755173 -11.71617547 17.85147359 -13 14 C-13.3686858 9.02274174 -13.16456308 5.95570385 -10 2 C-6.78446554 -0.32849047 -3.88978623 -0.54457007 0 0 Z M-4 7 C-4.66 8.65 -5.32 10.3 -6 12 C-4.02 12.99 -4.02 12.99 -2 14 C-0.70366379 12.93354885 -0.70366379 12.93354885 -0.9375 10.4375 C-0.958125 9.633125 -0.97875 8.82875 -1 8 C-1.99 7.67 -2.98 7.34 -4 7 Z " fill="#FFFFFF" transform="translate(25,26)"/>
</svg>
