<?xml version="1.0" encoding="UTF-8"?>
<svg version="1.1" xmlns="http://www.w3.org/2000/svg" width="100" height="100">
<path d="M0 0 C2.91565546 2.09577897 5.61764121 4.30605205 8 7 C8 7.66 8 8.32 8 9 C8.66 8.67 9.32 8.34 10 8 C13 7.8125 13 7.8125 16 8 C18.86737707 10.86737707 18.25061494 13.78769374 18.3125 17.625 C18.51846374 23.57675598 19.08047089 27.7398464 22.94140625 32.51953125 C24 34 24 34 24 37 C25.670625 36.938125 25.670625 36.938125 27.375 36.875 C31 37 31 37 33 39 C33.25223659 41.53116486 33.37023663 43.90576643 33.375 46.4375 C33.39949219 47.11876953 33.42398438 47.80003906 33.44921875 48.50195312 C33.46847194 51.77820438 33.44472445 53.52900491 31.1484375 55.9609375 C28.59915892 57.19386132 26.79824781 57.23318732 24 57 C23.773125 57.86625 23.54625 58.7325 23.3125 59.625 C22 63 22 63 19.45703125 65.66796875 C16.23331306 69.41818677 16.32551087 72.9076751 16.375 77.6875 C16.375 85.36423841 16.375 85.36423841 14.8203125 88 C12.29485259 89.38737712 10.36875431 89.36262608 7.5 89.3125 C6.5409375 89.30863281 5.581875 89.30476563 4.59375 89.30078125 C2 89 2 89 -1 87 C-1 84.69 -1 82.38 -1 80 C-6.61 80 -12.22 80 -18 80 C-18 81.98 -18 83.96 -18 86 C-19.15625 87.85546875 -19.15625 87.85546875 -21 89 C-23.59375 89.36328125 -23.59375 89.36328125 -26.5 89.3125 C-27.4590625 89.30863281 -28.418125 89.30476563 -29.40625 89.30078125 C-32 89 -32 89 -35 87 C-36.04291889 83.87124334 -36.06622957 81.59105017 -36.125 78.3125 C-36.55796147 72.48148659 -38.04667889 70.14426302 -42.14453125 66.15625 C-45.63240881 62.10296913 -47.20015378 56.97653331 -49 52 C-52.0109362 54.0072908 -52.63016497 54.83884224 -54 58 C-54.99 58 -55.98 58 -57 58 C-57.32316568 54.44517748 -57.45553291 52.62424881 -55.3125 49.6875 C-52.80401508 47.85698398 -51.05917167 47.33990796 -48 47 C-48.0825 45.88625 -48.165 44.7725 -48.25 43.625 C-48.23809845 36.91252538 -45.76145885 31.01309583 -41.375 26 C-38.94889192 22.93544242 -38.5958397 21.82370306 -38 18.125 C-36.81701446 10.96256026 -33.78010823 6.162238 -28.125 1.625 C-19.46814186 -4.3407749 -9.29559317 -4.63974148 0 0 Z M-30 9 C-34.27633256 14.84831774 -35.04121102 20.90739423 -34 28 C-32.55781134 32.2773205 -30.58498279 36.17068953 -27 39 C-22.43093074 39.7586723 -17.81246661 39.64801008 -13.1875 39.6875 C-11.91583984 39.74099609 -10.64417969 39.79449219 -9.33398438 39.84960938 C-2.6291632 40.08692624 -2.6291632 40.08692624 3.18896484 37.27587891 C7.78331249 31.28772498 8.8912881 25.41341988 8 18 C5.9496684 11.16889521 2.55587728 6.6554947 -3.609375 3.0625 C-13.18587198 -1.19372088 -22.86221902 1.5302292 -30 9 Z M12 12 C10.62124189 16.35562222 11.15701319 20.52302757 11.453125 25.02734375 C11 29 11 29 6 42 C-6.54 42 -19.08 42 -32 42 C-33.65 37.71 -35.3 33.42 -37 29 C-42.59596043 34.59596043 -44.16418847 38.44358277 -44.5625 46.1875 C-44.39666716 53.36806204 -42.12150453 59.14406624 -38 65 C-36.36370081 66.37043078 -34.70104644 67.71081555 -33 69 C-31.5192152 71.9615696 -31.64685963 74.83506295 -31.4375 78.125 C-31.35371094 79.40632813 -31.26992188 80.68765625 -31.18359375 82.0078125 C-31.12300781 82.99523437 -31.06242187 83.98265625 -31 85 C-26.99745544 85.09181134 -26.99745544 85.09181134 -23 85 C-21.2 83.4 -21.2 83.4 -21 77 C-13.41 77 -5.82 77 2 77 C2.495 80.465 2.495 80.465 3 84 C4.17718985 85.40432936 4.17718985 85.40432936 7.5 85.125 C10.82281015 85.40432936 10.82281015 85.40432936 12 84 C12.05695025 82.09111213 12.10972112 80.18198238 12.13842773 78.27246094 C12.28915483 71.1005506 12.42488005 65.9361847 17.59765625 60.5078125 C19.24118329 58.9615598 19.24118329 58.9615598 19.875 56.125 C21 54 21 54 22.85546875 53.32421875 C24.30126673 52.98899833 25.75820068 52.69801761 27.22265625 52.45703125 C27.80917969 52.30621094 28.39570312 52.15539063 29 52 C30.49297212 49.01405576 30.11755228 46.29146376 30 43 C29.505 42.01 29.505 42.01 29 41 C27.4221875 41.0309375 27.4221875 41.0309375 25.8125 41.0625 C22 40 22 40 20.23828125 37.52734375 C18.74136248 34.71835574 17.35720629 31.87837039 16 29 C15.67 28.67 15.34 28.34 15 28 C14.7637353 24.78980023 14.60339698 21.58726128 14.48242188 18.37109375 C14.39075776 16.57586061 14.20240144 14.78614053 14 13 C13.34 12.67 12.68 12.34 12 12 Z " fill="#FFFFFF" transform="translate(62,7)"/>
<path d="M0 0 C2.3431213 0.25561323 4.67843403 0.59270772 7 1 C8.38226016 3.76452033 8.09525387 6.0461363 8.0625 9.125 C8.05347656 10.22070312 8.04445313 11.31640625 8.03515625 12.4453125 C8.02355469 13.28835937 8.01195312 14.13140625 8 15 C6.68 15 5.36 15 4 15 C4 13.35 4 11.7 4 10 C3.01 10 2.02 10 1 10 C1 11.65 1 13.3 1 15 C-0.32 14.67 -1.64 14.34 -3 14 C-3.08153933 12.41753293 -3.13943557 10.83383727 -3.1875 9.25 C-3.22230469 8.36828125 -3.25710937 7.4865625 -3.29296875 6.578125 C-2.94923684 3.55328417 -1.99772541 2.24416398 0 0 Z M2 4 C1.67 4.66 1.34 5.32 1 6 C1.99 5.67 2.98 5.34 4 5 C3.34 4.67 2.68 4.34 2 4 Z " fill="#FFFFFF" transform="translate(46,22)"/>
<path d="M0 0 C3.13300128 1.57274168 4.27970144 3.0158479 5.625 6.25 C3.24534121 7.09422485 2.0958572 7.45193463 -0.26953125 6.4375 C-1.21892578 5.8496875 -1.21892578 5.8496875 -2.1875 5.25 C-6.28663113 3.04805038 -8.80516432 2.95665028 -13.375 4.25 C-14.261875 4.78625 -15.14875 5.3225 -16.0625 5.875 C-18.375 7.25 -18.375 7.25 -20.6875 6.9375 C-21.244375 6.710625 -21.80125 6.48375 -22.375 6.25 C-20.63064313 2.0564956 -18.61431865 0.84802942 -14.5859375 -0.984375 C-9.2965303 -2.81604251 -5.05431566 -2.299075 0 0 Z " fill="#FFFFFF" transform="translate(57.375,12.75)"/>
<path d="M0 0 C1.32 0 2.64 0 4 0 C4.33 0.66 4.66 1.32 5 2 C5.66 2 6.32 2 7 2 C7.33 1.34 7.66 0.68 8 0 C9.32 0 10.64 0 12 0 C11.835 0.7425 11.67 1.485 11.5 2.25 C10.744778 6.40372099 11.09512251 9.92805132 12 14 C9.03824877 13.38722388 7.61941217 12.74627478 5 11 C4.67 11.99 4.34 12.98 4 14 C2.68 14 1.36 14 0 14 C0.165 13.2575 0.33 12.515 0.5 11.75 C1.255222 7.59627901 0.90487749 4.07194868 0 0 Z " fill="#FFFFFF" transform="translate(56,23)"/>
<path d="M0 0 C4.29 0 8.58 0 13 0 C12.67 1.32 12.34 2.64 12 4 C10.68 4 9.36 4 8 4 C8 7.3 8 10.6 8 14 C6.68 14 5.36 14 4 14 C4 10.7 4 7.4 4 4 C2.68 4 1.36 4 0 4 C0 2.68 0 1.36 0 0 Z " fill="#FFFFFF" transform="translate(30,23)"/>
<path d="M0 0 C5.28 0 10.56 0 16 0 C16 1.32 16 2.64 16 4 C10.72 4 5.44 4 0 4 C0 2.68 0 1.36 0 0 Z " fill="#FFFFFF" transform="translate(41,52)"/>
</svg>
