<?xml version="1.0" encoding="UTF-8"?>
<svg version="1.1" xmlns="http://www.w3.org/2000/svg" width="100" height="100">
<path d="M0 0 C2.625 0.375 2.625 0.375 5 1 C5.02505615 2.23153809 5.0501123 3.46307617 5.07592773 4.73193359 C5.16992612 9.29047493 5.27016515 13.84886118 5.37231445 18.40722656 C5.41569203 20.38212462 5.457365 22.35706087 5.49731445 24.33203125 C5.55494873 27.1667839 5.6186627 30.00134378 5.68359375 32.8359375 C5.70030624 33.72243988 5.71701874 34.60894226 5.73423767 35.52230835 C5.71085211 39.89925155 5.71085211 39.89925155 7 44 C23.5 44 40 44 57 44 C58.66349319 40.67301363 58.24378057 36.93570615 58.31640625 33.2734375 C58.33718735 32.41062164 58.35796844 31.54780579 58.37937927 30.65884399 C58.44486034 27.89764507 58.50375298 25.13634962 58.5625 22.375 C58.6056866 20.50519828 58.64930093 18.63540638 58.69335938 16.765625 C58.80054024 12.17718272 58.90181175 7.58864317 59 3 C60.8125 2.375 60.8125 2.375 63 2 C63.99 2.66 64.98 3.32 66 4 C66.31660062 7.0523743 66.44393227 9.89739145 66.43359375 12.953125 C66.4388356 13.84610291 66.44407745 14.73908081 66.44947815 15.65911865 C66.45591009 17.55219482 66.45454624 19.4453109 66.44604492 21.33837891 C66.43757332 24.22501768 66.46621657 27.10965264 66.49804688 29.99609375 C66.49966 31.83593691 66.49907923 33.67578356 66.49609375 35.515625 C66.50732773 36.37520813 66.51856171 37.23479126 66.53013611 38.12042236 C66.46596478 43.68827531 65.629221 46.71957565 62 51 C59.43981964 52.28009018 57.5783472 52.15507123 54.71166992 52.19287109 C53.60679733 52.20893402 52.50192474 52.22499695 51.36357117 52.24154663 C46.30838576 52.28592035 41.25333255 52.32705801 36.19799805 52.35009766 C33.52908439 52.36343287 30.86197813 52.39395802 28.19311523 52.43212891 C24.35116487 52.48681351 20.51025556 52.50875987 16.66796875 52.5234375 C15.47511765 52.54610687 14.28226654 52.56877625 13.05326843 52.59213257 C3.83906379 52.56856608 3.83906379 52.56856608 0.77075195 49.59228516 C-1.45563484 46.33297521 -2.12564707 44.73472005 -2.14526367 40.85742188 C-2.15164352 40.00313599 -2.15802338 39.1488501 -2.16459656 38.26867676 C-2.16570938 37.34470093 -2.1668222 36.4207251 -2.16796875 35.46875 C-2.17129715 34.52189331 -2.17462555 33.57503662 -2.17805481 32.5994873 C-2.18312246 30.59546394 -2.18546319 28.59143211 -2.18530273 26.58740234 C-2.18749106 23.51255497 -2.20565354 20.43806519 -2.22460938 17.36328125 C-2.22754289 15.41927207 -2.22952797 13.47526117 -2.23046875 11.53125 C-2.23765427 10.60727417 -2.24483978 9.68329834 -2.25224304 8.73132324 C-2.24916641 7.87703735 -2.24608978 7.02275146 -2.24291992 6.14257812 C-2.24434494 5.38916138 -2.24576996 4.63574463 -2.24723816 3.85949707 C-2 2 -2 2 0 0 Z " fill="#FFFFFF" transform="translate(18,40)"/>
<path d="M0 0 C8.43149885 3.44269566 16.36851097 11.73363942 20 20 C19.57652157 24.42347843 19.57652157 24.42347843 18 26 C14.92719621 26.33326675 11.8385507 26.32496457 8.75 26.375 C7.89019531 26.41238281 7.03039062 26.44976562 6.14453125 26.48828125 C2.06409795 26.54486661 -0.45995461 26.28630547 -4.109375 24.3515625 C-6 21 -6 21 -6 7 C-22.335 7.495 -22.335 7.495 -39 8 C-40.93588407 11.87176814 -40.47609565 16.64203958 -40.71875 20.91015625 C-41 24 -41 24 -42 25 C-44.5 25.125 -44.5 25.125 -47 25 C-49.08729489 22.91270511 -48.2768056 18.67519125 -48.3125 15.8125 C-48.34150391 15.05646484 -48.37050781 14.30042969 -48.40039062 13.52148438 C-48.46032759 8.2055362 -47.53102984 5.21234171 -44 1 C-33.41510388 -4.29244806 -11.27885817 -2.62620542 0 0 Z M1 13 C0.957279 14.66611905 0.95936168 16.33382885 1 18 C2.06645115 19.29633621 2.06645115 19.29633621 4.5625 19.0625 C5.366875 19.041875 6.17125 19.02125 7 19 C5.35830472 16.97945196 3.69088222 14.97956942 2 13 C1.67 13 1.34 13 1 13 Z " fill="#FFFFFF" transform="translate(64,8)"/>
<path d="M0 0 C2.984375 1.92578125 2.984375 1.92578125 5.75 4.3125 C6.67296875 5.09238281 7.5959375 5.87226562 8.546875 6.67578125 C9.76117188 7.82626953 9.76117188 7.82626953 11 9 C11.59296875 9.56074219 12.1859375 10.12148438 12.796875 10.69921875 C14.7709477 14.47431232 14.51264837 18.30706449 14.5 22.5 C14.52835938 23.35464844 14.55671875 24.20929688 14.5859375 25.08984375 C14.58980469 26.32927734 14.58980469 26.32927734 14.59375 27.59375 C14.60083984 28.34333984 14.60792969 29.09292969 14.61523438 29.86523438 C13.65907656 33.18295021 11.89179989 34.22588964 9 36 C5.94140625 36.51757812 5.94140625 36.51757812 2.5625 36.53125 C0.72558594 36.53898437 0.72558594 36.53898437 -1.1484375 36.546875 C-2.41945313 36.53140625 -3.69046875 36.5159375 -5 36.5 C-6.90652344 36.52320312 -6.90652344 36.52320312 -8.8515625 36.546875 C-10.07617188 36.54171875 -11.30078125 36.5365625 -12.5625 36.53125 C-13.67753906 36.52673828 -14.79257812 36.52222656 -15.94140625 36.51757812 C-19.70670823 35.88041016 -21.37728032 34.74916635 -24 32 C-24.63110352 29.88110352 -24.63110352 29.88110352 -24.62890625 27.62890625 C-24.63083984 26.80712891 -24.63277344 25.98535156 -24.63476562 25.13867188 C-24.61091797 24.28853516 -24.58707031 23.43839844 -24.5625 22.5625 C-24.57345703 21.71623047 -24.58441406 20.86996094 -24.59570312 19.99804688 C-24.54557828 15.73075164 -24.36049053 13.54869288 -21.96484375 9.90234375 C-21.31644531 9.27457031 -20.66804688 8.64679687 -20 8 C-18.35 8.33 -16.7 8.66 -15 9 C-14.957279 10.66611905 -14.95936168 12.33382885 -15 14 C-15.33 14.33 -15.66 14.66 -16 15 C-16.23481693 17.18292774 -16.41363323 19.37203174 -16.5625 21.5625 C-16.68818359 23.35880859 -16.68818359 23.35880859 -16.81640625 25.19140625 C-16.87699219 26.11824219 -16.93757813 27.04507813 -17 28 C-14.69 28 -12.38 28 -10 28 C-10.020625 26.700625 -10.04125 25.40125 -10.0625 24.0625 C-10.08399454 22.70834367 -10.07148199 21.35243917 -10 20 C-9 19 -9 19 -7.1875 18.8671875 C-6.465625 18.86976562 -5.74375 18.87234375 -5 18.875 C-4.278125 18.87242188 -3.55625 18.86984375 -2.8125 18.8671875 C-1 19 -1 19 0 20 C0.14115161 22.67058851 0.04247107 25.32432238 0 28 C2.31 28 4.62 28 7 28 C7.4130615 19.77510545 7.4130615 19.77510545 4.10546875 12.54296875 C1.75636139 10.63017984 -0.18687049 9.13432642 -3 8 C-5.63760619 8.21365291 -5.63760619 8.21365291 -8 9 C-11.81818182 10.09090909 -11.81818182 10.09090909 -14 9 C-14 7.02 -14 5.04 -14 3 C-8.75314262 -0.53359783 -6.43090911 -1.58513219 0 0 Z " fill="#FFFFFF" transform="translate(55,46)"/>
<path d="M0 0 C1.17111328 -0.01224609 2.34222656 -0.02449219 3.54882812 -0.03710938 C4.66580078 -0.03904297 5.78277344 -0.04097656 6.93359375 -0.04296875 C7.96411865 -0.04707764 8.99464355 -0.05118652 10.05639648 -0.05541992 C12.5625 0.1875 12.5625 0.1875 14.5625 2.1875 C14.1875 4.8125 14.1875 4.8125 13.5625 7.1875 C9.25001391 7.21636537 4.93755238 7.23425255 0.625 7.25 C-0.60669922 7.25837891 -1.83839844 7.26675781 -3.10742188 7.27539062 C-4.27724609 7.27861328 -5.44707031 7.28183594 -6.65234375 7.28515625 C-8.27837524 7.29301147 -8.27837524 7.29301147 -9.93725586 7.30102539 C-12.4375 7.1875 -12.4375 7.1875 -13.4375 6.1875 C-13.5625 3.6875 -13.5625 3.6875 -13.4375 1.1875 C-10.84794843 -1.40205157 -3.48572397 0.00191208 0 0 Z " fill="#FFFFFF" transform="translate(45.4375,34.8125)"/>
<path d="M0 0 C1.45212891 -0.03867187 1.45212891 -0.03867187 2.93359375 -0.078125 C5.5625 0.25 5.5625 0.25 7.421875 1.6328125 C8.5625 3.25 8.5625 3.25 8.375 5.375 C7.5625 7.25 7.5625 7.25 5.5625 8.25 C3.5652458 8.37199138 1.56344019 8.42547512 -0.4375 8.4375 C-1.51 8.45167969 -2.5825 8.46585938 -3.6875 8.48046875 C-6.4375 8.25 -6.4375 8.25 -8.4375 6.25 C-8.1875 3.6875 -8.1875 3.6875 -7.4375 1.25 C-4.85741408 -0.04004296 -2.88008426 0.04589776 0 0 Z " fill="#FFFFFF" transform="translate(40.4375,21.75)"/>
</svg>
