<?xml version="1.0" encoding="UTF-8"?>
<svg version="1.1" xmlns="http://www.w3.org/2000/svg" width="64" height="64">
<path d="M0 0 C5.44450851 4.79441795 7.72804417 9.62774771 8.3125 16.875 C8.11404529 22.35861702 6.93928511 26.86342832 3.1953125 30.98828125 C-2.8368306 36.48549845 -7.1982403 38.21349351 -15.3046875 38.265625 C-18.68745827 37.93225049 -21.75960389 37.00316931 -25 36 C-25.45850342 36.4846875 -25.91700684 36.969375 -26.3894043 37.46875 C-28.47555453 39.6588787 -30.58105559 41.82939062 -32.6875 44 C-33.40873047 44.763125 -34.12996094 45.52625 -34.87304688 46.3125 C-35.57880859 47.034375 -36.28457031 47.75625 -37.01171875 48.5 C-37.65584717 49.1703125 -38.29997559 49.840625 -38.96362305 50.53125 C-41.5174675 52.37322677 -42.91543292 52.44631286 -46 52 C-48 50 -48 50 -48.34375 47.62426758 C-47.90819149 44.29911244 -46.89721121 43.3152889 -44.5 41.01171875 C-43.778125 40.30595703 -43.05625 39.60019531 -42.3125 38.87304688 C-41.549375 38.15181641 -40.78625 37.43058594 -40 36.6875 C-39.236875 35.94693359 -38.47375 35.20636719 -37.6875 34.44335938 C-35.80239968 32.61716844 -33.90664431 30.80364241 -32 29 C-32.32226562 27.94683594 -32.64453125 26.89367187 -32.9765625 25.80859375 C-34.87898903 18.72895305 -35.04796023 12.3067751 -31.33203125 5.8203125 C-23.47778163 -4.91306088 -11.16402422 -7.03684336 0 0 Z M-28 7 C-28.66 8.32 -29.32 9.64 -30 11 C-26.04 11 -22.08 11 -18 11 C-18 11.99 -18 12.98 -18 14 C-19.32 14 -20.64 14 -22 14 C-22 16.97 -22 19.94 -22 23 C-22.99 23 -23.98 23 -25 23 C-25 20.03 -25 17.06 -25 14 C-27.97 13.505 -27.97 13.505 -31 13 C-31.45486774 19.36814833 -30.64115714 23.68012756 -27 29 C-22.76199786 33.12933542 -19.04835049 34.7985229 -13.1875 35.375 C-7.74481888 35.20042344 -3.39500717 33.23494481 0.578125 29.52734375 C4.37523949 24.91188562 5.46314509 19.9097314 5 14 C3.32237551 8.05582435 -0.01496534 4.45900364 -5 1 C-13.73678033 -3.58680967 -21.88824934 -0.15947935 -28 7 Z M-29 31 C-34.28 36.28 -39.56 41.56 -45 47 C-44.34 47.66 -43.68 48.32 -43 49 C-37.72 43.72 -32.44 38.44 -27 33 C-27.66 32.34 -28.32 31.68 -29 31 Z " fill="#FFFFFF" transform="translate(53,7)"/>
<path d="M0 0 C1.875 0.1875 1.875 0.1875 4 1 C5.52164099 3.89111788 6 5.71823412 6 9 C6.99 8.34 7.98 7.68 9 7 C8.67 6.401875 8.34 5.80375 8 5.1875 C7 3 7 3 7 0 C9.38564077 0.57584432 11.66682784 1.22227595 14 2 C14.33 1.34 14.66 0.68 15 0 C15.99 0 16.98 0 18 0 C17.835 0.5775 17.67 1.155 17.5 1.75 C16.69109799 5.39005903 16.99226083 8.47291292 18 12 C16.68 11.67 15.36 11.34 14 11 C14 10.34 14 9.68 14 9 C13.195625 9.7425 13.195625 9.7425 12.375 10.5 C9.40641555 12.37489544 7.44687573 12.23501425 4 12 C4 11.34 4 10.68 4 10 C2.8553125 10.495 2.8553125 10.495 1.6875 11 C-1 12 -1 12 -4 12 C-2.66666667 8 -1.33333333 4 0 0 Z " fill="#FFFFFF" transform="translate(37,18)"/>
</svg>
