<?xml version="1.0" encoding="UTF-8"?>
<svg version="1.1" xmlns="http://www.w3.org/2000/svg" width="100" height="100">
<path d="M0 0 C1.70884005 1.62339805 3.37446717 3.29319053 5 5 C5 5.66 5 6.32 5 7 C5.88042969 6.57847656 6.76085937 6.15695313 7.66796875 5.72265625 C8.82941406 5.17480469 9.99085937 4.62695312 11.1875 4.0625 C12.33605469 3.51722656 13.48460938 2.97195312 14.66796875 2.41015625 C23.86337076 -1.48144999 35.254142 -1.35222185 44.6328125 1.96875 C56.49005717 7.13428233 63.9621012 14.53246515 69.08984375 26.421875 C73.05595734 37.65635984 71.84370024 49.94301295 66.78125 60.5546875 C61.212857 70.73247248 53.01573733 77.3753654 42 81 C38.94461146 81.5925066 36.11991059 81.84656177 33 82 C33 78.37 33 74.74 33 71 C34.464375 70.62875 35.92875 70.2575 37.4375 69.875 C46.49933496 67.09364472 52.32420009 62.92784512 56.84375 54.50390625 C60.64663536 46.26860384 60.95364421 38.46885178 57.87109375 29.83984375 C53.68144055 20.6271731 48.77570816 16.34554684 39.5 12.625 C30.31719835 9.62293023 23.77201082 10.95365157 15 15 C14.34 15.66 13.68 16.32 13 17 C13.3609375 17.48210938 13.721875 17.96421875 14.09375 18.4609375 C14.5578125 19.09257812 15.021875 19.72421875 15.5 20.375 C15.9640625 21.00148438 16.428125 21.62796875 16.90625 22.2734375 C18 24 18 24 18 26 C8.76 26 -0.48 26 -10 26 C-8.72125 22.266875 -7.4425 18.53375 -6.125 14.6875 C-5.72555176 13.51405029 -5.32610352 12.34060059 -4.91455078 11.1315918 C-4.59470215 10.20515869 -4.27485352 9.27872559 -3.9453125 8.32421875 C-3.62062988 7.37635498 -3.29594727 6.42849121 -2.96142578 5.4519043 C-2 3 -2 3 0 0 Z " fill="#FFFFFF" transform="translate(20,9)"/>
<path d="M0 0 C1.98 0 3.96 0 6 0 C6 1.32 6 2.64 6 4 C8.97 4.495 8.97 4.495 12 5 C13.2077558 8.62326739 12.54311128 9.64146369 11 13 C9.01432292 12.4140625 7.02864583 11.828125 5.04296875 11.2421875 C2.68854587 10.73906252 2.68854587 10.73906252 0 13 C0.67546875 13.45890625 1.3509375 13.9178125 2.046875 14.390625 C2.93890625 15.00421875 3.8309375 15.6178125 4.75 16.25 C5.63171875 16.85328125 6.5134375 17.4565625 7.421875 18.078125 C13.67258065 22.73774194 13.67258065 22.73774194 14.56640625 26.18359375 C14.55880894 30.56724149 14.4180829 32.44632265 11.6875 36.0625 C9 38 9 38 6 38 C6 39.32 6 40.64 6 42 C4.02 42 2.04 42 0 42 C0 40.68 0 39.36 0 38 C-2.31 37.67 -4.62 37.34 -7 37 C-7.92091738 34.42143135 -8.18506902 33.4056713 -7.0234375 30.859375 C-6.68570313 30.24578125 -6.34796875 29.6321875 -6 29 C-5.30132812 29.15597656 -4.60265625 29.31195313 -3.8828125 29.47265625 C-2.51769531 29.76462891 -2.51769531 29.76462891 -1.125 30.0625 C-0.22007813 30.25972656 0.68484375 30.45695312 1.6171875 30.66015625 C4.01014125 31.23202157 4.01014125 31.23202157 6 30 C5.9099559 28.10371189 5.9099559 28.10371189 5 26 C2.53722771 24.12768948 2.53722771 24.12768948 -0.4375 22.5 C-6.75001562 18.87873941 -6.75001562 18.87873941 -8 15 C-7.85790408 11.02131426 -7.57177573 8.74330845 -5.125 5.5625 C-3 4 -3 4 0 4 C0 2.68 0 1.36 0 0 Z " fill="#FFFFFF" transform="translate(47,29)"/>
<path d="M0 0 C1.64671412 0.30782496 3.29235576 0.62139234 4.9375 0.9375 C5.85402344 1.11152344 6.77054688 1.28554687 7.71484375 1.46484375 C10 2 10 2 11 3 C11.07205511 4.68608966 11.08386068 6.37500659 11.0625 8.0625 C11.05347656 8.98160156 11.04445313 9.90070313 11.03515625 10.84765625 C11.02355469 11.55792969 11.01195312 12.26820312 11 13 C5.33557626 12.63495936 0.99296295 11.9445679 -4 9 C-2.80023567 5.91489173 -1.49997444 2.94952958 0 0 Z " fill="#FFFFFF" transform="translate(36,78)"/>
<path d="M0 0 C2.6875 2.1875 2.6875 2.1875 5 5 C5 8.97688596 3.14653796 11.73352919 1 15 C-4.29158974 13.59928507 -6.77478044 10.14512755 -10 6 C-4.4 0 -4.4 0 0 0 Z " fill="#FFFFFF" transform="translate(27,69)"/>
<path d="M0 0 C1.5625 2.8125 1.5625 2.8125 3 6 C2 9 2 9 0.15234375 10.16796875 C-0.57855469 10.50441406 -1.30945313 10.84085938 -2.0625 11.1875 C-2.79597656 11.53167969 -3.52945312 11.87585938 -4.28515625 12.23046875 C-4.85105469 12.48441406 -5.41695312 12.73835938 -6 13 C-6.67667998 11.75539217 -7.34094719 10.50403104 -8 9.25 C-8.37125 8.55390625 -8.7425 7.8578125 -9.125 7.140625 C-10 5 -10 5 -10 1 C-6.59437148 0.22157062 -3.49234244 -0.09978121 0 0 Z " fill="#FFFFFF" transform="translate(20,57)"/>
<path d="M0 0 C2.57161458 0.03255208 5.14322917 0.06510417 7.71484375 0.09765625 C7.38484375 3.39765625 7.05484375 6.69765625 6.71484375 10.09765625 C3.41484375 10.42765625 0.11484375 10.75765625 -3.28515625 11.09765625 C-3.3828125 3.3828125 -3.3828125 3.3828125 -3.28515625 1.09765625 C-2.28515625 0.09765625 -2.28515625 0.09765625 0 0 Z " fill="#FFFFFF" transform="translate(12.28515625,41.90234375)"/>
</svg>
