<?xml version="1.0" encoding="UTF-8"?>
<svg version="1.1" xmlns="http://www.w3.org/2000/svg" width="100" height="100">
<path d="M0 0 C1.56601635 1.19798982 3.10964386 2.42603951 4.625 3.6875 C5.28371094 4.2340625 5.94242187 4.780625 6.62109375 5.34375 C12.87759529 11.04860301 17.34534719 19.09385876 17.86328125 27.6015625 C18.23716425 43.56976555 18.23716425 43.56976555 13.625 50.6875 C13.026875 51.71875 12.42875 52.75 11.8125 53.8125 C4.53486106 63.37739689 -4.36516298 69.81916134 -16.26855469 72.40185547 C-21.40249955 73.0980441 -26.71102082 72.74570028 -31.86401367 72.36450195 C-38.01138769 72.07452602 -40.96395783 73.24561534 -45.64453125 77.22363281 C-49.71815897 80.66966439 -53.50532901 80.92639387 -58.6875 80.8125 C-59.75613281 80.79445313 -60.82476562 80.77640625 -61.92578125 80.7578125 C-62.73402344 80.73460938 -63.54226562 80.71140625 -64.375 80.6875 C-62.8933074 76.86699217 -61.17909242 73.27643084 -59.27734375 69.65234375 C-58.37077093 67.67829124 -57.83275052 65.80636583 -57.375 63.6875 C-57.95378906 63.43871094 -58.53257813 63.18992187 -59.12890625 62.93359375 C-65.76269329 59.25328407 -70.66792039 51.85277777 -73.52734375 44.98046875 C-75.85396363 35.942033 -76.14816582 24.74728129 -71.50390625 16.4296875 C-71.13136719 15.85476562 -70.75882812 15.27984375 -70.375 14.6875 C-69.776875 13.65625 -69.17875 12.625 -68.5625 11.5625 C-52.77820474 -9.18257377 -21.97782401 -14.60801476 0 0 Z M-63.3125 13.125 C-69.3768891 21.64947148 -70.40136345 29.22331168 -69.375 39.6875 C-67.67199211 47.3885231 -63.31325621 53.55649277 -57.375 58.6875 C-54.73981825 59.94097738 -54.73981825 59.94097738 -52.375 60.6875 C-52.78653737 65.65843824 -53.17100832 70.13258386 -55.375 74.6875 C-49.99151963 74.05414937 -46.16589107 71.47839107 -42.375 67.6875 C-39.57421875 67.78125 -39.57421875 67.78125 -36.0625 68.1875 C-22.10852813 69.3729449 -9.31685126 66.63975837 1.5859375 57.60546875 C9.19481384 50.44846055 12.71311763 43.22634867 13.0625 32.8125 C12.79556345 22.8077182 9.79074558 15.95891111 2.890625 8.7265625 C-7.61279227 -0.72651304 -19.24872464 -3.10121016 -32.9609375 -2.65625 C-45.13866079 -1.92735677 -55.58162833 3.74444441 -63.3125 13.125 Z " fill="#FFFFFF" transform="translate(78.375,15.3125)"/>
<path d="M0 0 C1.95196289 -0.04930664 1.95196289 -0.04930664 3.94335938 -0.09960938 C5.81024414 -0.11024414 5.81024414 -0.11024414 7.71484375 -0.12109375 C8.85945068 -0.13454834 10.00405762 -0.14800293 11.18334961 -0.16186523 C14.0625 0.4375 14.0625 0.4375 15.95922852 2.97241211 C16.32330811 3.78589111 16.6873877 4.59937012 17.0625 5.4375 C17.949375 4.9425 18.83625 4.4475 19.75 3.9375 C23.0625 2.4375 23.0625 2.4375 28.0625 2.4375 C28.0625 10.3575 28.0625 18.2775 28.0625 26.4375 C20.1875 25.3125 20.1875 25.3125 17.0625 23.4375 C16.69842041 24.250979 16.33434082 25.06445801 15.95922852 25.90258789 C14.0625 28.4375 14.0625 28.4375 11.18334961 29.03686523 C9.46643921 29.01668335 9.46643921 29.01668335 7.71484375 28.99609375 C6.47025391 28.98900391 5.22566406 28.98191406 3.94335938 28.97460938 C2.64205078 28.94173828 1.34074219 28.90886719 0 28.875 C-1.30517578 28.86919922 -2.61035156 28.86339844 -3.95507812 28.85742188 C-13.64313616 28.73186384 -13.64313616 28.73186384 -15.9375 26.4375 C-16.19628906 24.0390625 -16.19628906 24.0390625 -16.203125 21.0625 C-16.20570312 19.99515625 -16.20828125 18.9278125 -16.2109375 17.828125 C-16.19933594 16.14976563 -16.19933594 16.14976563 -16.1875 14.4375 C-16.19523437 13.31859375 -16.20296875 12.1996875 -16.2109375 11.046875 C-16.20835938 9.97953125 -16.20578125 8.9121875 -16.203125 7.8125 C-16.20086914 6.83023438 -16.19861328 5.84796875 -16.19628906 4.8359375 C-15.42366457 -2.32468795 -5.35232979 0.02378813 0 0 Z M-11.9375 6.4375 C-12.13602102 9.14672801 -12.21589477 11.73053179 -12.1875 14.4375 C-12.19523437 15.17484375 -12.20296875 15.9121875 -12.2109375 16.671875 C-12.34758865 21.02171903 -12.34758865 21.02171903 -9.9375 24.4375 C-7.83936619 24.74734531 -7.83936619 24.74734531 -5.4375 24.703125 C-4.1071875 24.70699219 -4.1071875 24.70699219 -2.75 24.7109375 C-1.3578125 24.69933594 -1.3578125 24.69933594 0.0625 24.6875 C0.990625 24.69523437 1.91875 24.70296875 2.875 24.7109375 C3.761875 24.70835938 4.64875 24.70578125 5.5625 24.703125 C6.78453125 24.69974121 6.78453125 24.69974121 8.03125 24.69628906 C10.28880451 24.61924293 10.28880451 24.61924293 12.0625 22.4375 C12.26102102 19.72827199 12.34089477 17.14446821 12.3125 14.4375 C12.32023437 13.70015625 12.32796875 12.9628125 12.3359375 12.203125 C12.47258865 7.85328097 12.47258865 7.85328097 10.0625 4.4375 C7.96436619 4.12765469 7.96436619 4.12765469 5.5625 4.171875 C4.2321875 4.16800781 4.2321875 4.16800781 2.875 4.1640625 C1.946875 4.17179687 1.01875 4.17953125 0.0625 4.1875 C-1.3296875 4.17589844 -1.3296875 4.17589844 -2.75 4.1640625 C-3.636875 4.16664062 -4.52375 4.16921875 -5.4375 4.171875 C-6.2521875 4.17413086 -7.066875 4.17638672 -7.90625 4.17871094 C-10.16380451 4.25575707 -10.16380451 4.25575707 -11.9375 6.4375 Z M19.5 10.4375 C18.365625 11.0975 17.23125 11.7575 16.0625 12.4375 C16.01082473 14.86017086 16.01082473 14.86017086 17.0625 17.4375 C20.53557328 19.30733745 20.53557328 19.30733745 24.0625 20.4375 C24.0625 16.4775 24.0625 12.5175 24.0625 8.4375 C22.32043692 8.4375 20.97654908 9.5784169 19.5 10.4375 Z " fill="#FFFFFF" transform="translate(45.9375,33.5625)"/>
</svg>
